<svg xmlns="http://www.w3.org/2000/svg" viewBox="0 0 372.77 392.81"><defs><clipPath id="clip-path" transform="translate(-130.96 -93.43)"><path d="M357.75 297H500v193.29H357.75z" style="fill:none"/></clipPath><style>.cls-3{fill:#fff}.cls-4{fill:#4e4d50}.cls-5{fill:#413f42}.cls-6{fill:#767377}.cls-9{fill:#fe9a6d}.cls-11{fill:#d5660a}.cls-13{fill:#efeef4}.cls-14{fill:#d3a7a0}.cls-15{fill:#c2948d}.cls-16{fill:#ab7a76}.cls-18{fill:#feb98f}.cls-19{fill:#fed1a4}.cls-20{fill:#ff790a}.cls-21{fill:#572a0d}.cls-22{fill:#6d3313}.cls-23{fill:#fe8356}.cls-24{fill:#484649}.cls-25{fill:#353435}.cls-26{fill:#d21e21}.cls-31{fill:#b81e21}.cls-33{fill:#ddb9b3}</style></defs><g style="isolation:isolate"><g id="OBJECTS"><path d="M41.33 323.86a5.86 5.86 0 0 1-.4-1.09 10.86 10.86 0 0 1-.41-3.14v-4.19H11.04v4.19a10.86 10.86 0 0 1-.41 3.14 6.62 6.62 0 0 1-.41 1.09A11.17 11.17 0 0 0 .04 334.98v11.9a9.92 9.92 0 0 0 9.91 9.9H41.7a9.92 9.92 0 0 0 9.91-9.9v-11.9a11.17 11.17 0 0 0-10.28-11.12Zm6 23a5.71 5.71 0 0 1-5.71 5.7H9.91a5.71 5.71 0 0 1-5.71-5.7v-11.9a7 7 0 0 1 7-7 2.61 2.61 0 0 0 2.19-1.15 6.69 6.69 0 0 0 .44-.73c.07-.12.15-.26.22-.41a10.31 10.31 0 0 0 .61-1.57c0-.14.09-.29.12-.44a3 3 0 0 0 .1-.32c0-.2.09-.41.13-.63s.08-.46.12-.71.07-.5.09-.75.05-.49.06-.73a.66.66 0 0 0 0-.14v-.81h21.05V321.5c.05.42.11.83.19 1.21 0 .22.09.43.13.63a11.23 11.23 0 0 0 1.16 2.95c0 .1.11.19.16.28a2.5 2.5 0 0 0 .16.24 2.64 2.64 0 0 0 2.2 1.15h.44a6.09 6.09 0 0 1 1.29.2 4.6 4.6 0 0 1 .66.2 4.32 4.32 0 0 1 .45.19 6 6 0 0 1 1.05.58c.18.13.36.25.53.4a5.24 5.24 0 0 1 .5.44c.15.16.3.33.44.5a5.39 5.39 0 0 1 .4.54 7.09 7.09 0 0 1 .6 1.08 3 3 0 0 1 .16.42 4.09 4.09 0 0 1 .21.65 6.31 6.31 0 0 1 .15.73v.23a1.94 1.94 0 0 1 0 .34 3.24 3.24 0 0 1 0 .44Z" class="cls-3"/><path d="M47.37 334.98v11.9a5.71 5.71 0 0 1-5.71 5.7H9.91a5.71 5.71 0 0 1-5.71-5.7v-11.9a7 7 0 0 1 7-7 2.61 2.61 0 0 0 2.19-1.15 12.75 12.75 0 0 0 1.91-7.24h21.05a12.83 12.83 0 0 0 1.91 7.24 2.64 2.64 0 0 0 2.2 1.15 6.93 6.93 0 0 1 7 7Z" class="cls-4"/><path d="M47.37 334.98v11.9a5.71 5.71 0 0 1-5.71 5.7h-3.9a5.11 5.11 0 0 0 5.12-5.11v-10.66a6.13 6.13 0 0 0-3.65-5.67c-1.2-.49-2.56-.63-3.52-1.6-1.77-1.77-2.49-6.48-2.69-9.91h3.29a12.83 12.83 0 0 0 1.91 7.24 2.64 2.64 0 0 0 2.2 1.15 6.93 6.93 0 0 1 7 7Z" class="cls-5"/><path d="M6.8 340.57a1 1 0 0 1-1-1v-2.3a1 1 0 0 1 1-1 1 1 0 0 1 1 1v2.3a1 1 0 0 1-1 1ZM6.8 335.68a1 1 0 0 1-1-1 1 1 0 0 1 1-1 1 1 0 0 1 1 1 1 1 0 0 1-1 1Z" class="cls-6"/><path d="M171.89 416.2h-30.28a10.86 10.86 0 0 0 .41-3.14v-4.19h29.46v4.19a10.86 10.86 0 0 0 .41 3.14Z" style="opacity:.1;mix-blend-mode:multiply;fill:#4e4d50" transform="translate(-130.96 -93.43)"/><path d="M174.53 407.79a5.26 5.26 0 0 1-5.27 5.27h-25a5.28 5.28 0 0 1 0-10.55h25a5.27 5.27 0 0 1 5.27 5.28Z" style="fill:#f0eff5" transform="translate(-130.96 -93.43)"/><path d="M37.21 314.36a5.26 5.26 0 0 1-5.27 5.27H13.27a5.28 5.28 0 0 1 0-10.55h18.67a5.27 5.27 0 0 1 5.27 5.28Z" class="cls-3"/><path d="M15.62 315.66a2.49 2.49 0 0 1-2.49-2.49v-4.09h5v4.09a2.49 2.49 0 0 1-2.51 2.49Z" class="cls-5"/><path d="M15.1 314.84a1.45 1.45 0 0 1-1.45-1.45v-2.42a1.45 1.45 0 0 1 1.45-1.45 1.45 1.45 0 0 1 1.45 1.45v2.42a1.45 1.45 0 0 1-1.45 1.45Z" class="cls-4"/><path d="M13.85 311.94a.47.47 0 0 1-.47-.47v-.83a.47.47 0 0 1 .47-.47.47.47 0 0 1 .47.47v.83a.47.47 0 0 1-.47.47Z" class="cls-6"/><path d="M77.17 294.05s3.21 15.22 26.69 25.66l13.45-24s-11.93-7.86-15.86-14Z" class="cls-9"/><path d="M348 307.76a31.31 31.31 0 0 0-10.34 19.63c-3.15 25.15-10.08 81.46-13.58 118.87-7.66 4-15.93 4.5-22.85 3.76a54.61 54.61 0 0 1-20.44-6.52l-56.42-32.58c3.5-22.09 21.25-33.35 21.25-33.35l49.48 28.51L324.93 338a79.24 79.24 0 0 1 21.32-28.8c.62-.52 1.21-1 1.75-1.44Z" style="fill:#c2560a" transform="translate(-130.96 -93.43)"/><path d="m193.8 244.96-12.5 102.83a10 10 0 0 1-10.93 8.78h-.09a54.81 54.81 0 0 1-20.44-6.53l-56.41-32.57c3.49-22.11 21.23-33.36 21.23-33.36l49.48 28.5Z" class="cls-11"/><path d="m164.14 312.65 9.52 7.05-7.96-10.61-1.56 3.56z" style="fill:#af4109"/><path d="M126.55 290.99a48.39 48.39 0 0 0-21.58 33.17l-11.54-6.66s1.93-23.21 21.23-33.36Z" class="cls-3"/><path d="M126.56 290.99a48.39 48.39 0 0 0-21.59 33.17l-2.88-1.66c.82-19.8 15.13-30.9 20-34.1Z" class="cls-13"/><path d="M122.66 303.74a1.73 1.73 0 0 1-.7.15 1.6 1.6 0 0 1-1.36-.77l-10.56-17.63a104.48 104.48 0 0 0-22.39-26.45 69.28 69.28 0 0 0-12.76-8.68s5.4-.5 8.24-.5a46.21 46.21 0 0 0-8.21-2.12 42.77 42.77 0 0 1-23-11.92c-3.4-3.45-6.1-7.45-7.1-11.89a26.13 26.13 0 0 0 20.31 3.7 26.66 26.66 0 0 1 12.18.21c5.65 1.47 12.26 5.23 16.12 14.38a26.82 26.82 0 0 0 .62-9.45s9.14 9.05 10.76 19.73c0 0 1.06 13.19 4.42 20l14.19 29.07a1.61 1.61 0 0 1-.76 2.17Z" class="cls-14"/><path d="M105.81 279a102.31 102.31 0 0 0-18.18-20 69.22 69.22 0 0 0-12.76-8.67s5.39-.51 8.24-.51a46.65 46.65 0 0 0-8.21-2.13 42.63 42.63 0 0 1-23-11.92c-3.4-3.45-6.1-7.44-7.1-11.89a23.31 23.31 0 0 0 8.32 3.61 33 33 0 0 0 18.24 13.52c10.45 3 19.72 9.35 25.59 18.51a80.58 80.58 0 0 1 8.86 19.48Z" class="cls-15"/><path d="M64.52 227.73a26 26 0 0 1-19.75-3.8s-3.52-18.37 9.07-24.61c-.28.75-9.4 25.25 10.68 28.41Z" class="cls-15"/><path d="M53.09 227.57a23.31 23.31 0 0 1-8.32-3.61s-3.52-18.36 9.08-24.6c-.17.45-3.44 9.25-1.9 17a28.18 28.18 0 0 0 1.14 11.21Z" class="cls-16"/><path d="M253.62 397.17a1.69 1.69 0 0 1-.7.15 1.6 1.6 0 0 1-1.36-.77l-.95-1.58a6 6 0 0 1 3-1.45l.73 1.49a1.6 1.6 0 0 1-.72 2.16Z" style="fill:#372e00" transform="translate(-130.96 -93.43)"/><path d="M77.17 294.05s-6.12-29.94 23.7-35.41a26.43 26.43 0 0 1 8.47-.39c19.94 2.25 19.62 31.66-.33 33.84a66.21 66.21 0 0 1-10.77.22s-6.81-2.57-21.07 1.74Z" class="cls-18"/><path d="M116.35 267.57c0 3.42-4.72 6.19-10.54 6.19s-10.53-2.77-10.53-6.19 4.72-6.2 10.53-6.2 10.54 2.77 10.54 6.2Z" class="cls-19"/><path d="M329.25 356.86h-136.6c.7-7.71 1.57-16.32 2.53-25.35.7-6.65 1.46-13.52 2.24-20.46.24-2.16.49-4.34.74-6.52.2-1.84.41-3.68.62-5.5q.64-5.55 1.29-11c.82-6.95 1.62-13.75 2.4-20.16.11-1 .24-2 .36-3 .26-2.26.54-4.46.79-6.6.22-1.75.43-3.47.64-5.14.13-1 .25-2.07.37-3.07.19-1.56.39-3.06.57-4.52.11-.93.22-1.84.34-2.74s.19-1.57.28-2.33l.06-.45c.07-.53.13-1.05.2-1.56.09-.8.19-1.58.28-2.34s.17-1.35.26-2a31.45 31.45 0 0 1 15.05-23.18 101.26 101.26 0 0 1 18-8.36s2.56 7.11 14.76 12.8c0 0 13.1-6.91 17.94-14.84 7.69 2.45 15.51 5.36 22.6 8.18 1.08.43 2.13.89 3.16 1.4.29.14.59.28.88.44s.59.29.88.45.49.27.73.42.51.27.76.43.5.29.75.45.71.43 1.06.68c.64.4 1.26.83 1.87 1.27s1 .74 1.5 1.14.92.73 1.35 1.1a.58.58 0 0 1 .12.1l.09.08c.35.31.69.62 1 .94a46.18 46.18 0 0 1 15.06 31.18c2.63 39.55 4.35 86.41 5.07 108.06Z" class="cls-11"/><path d="M316.04 267.73a58.2 58.2 0 0 1-39.95 53.94c-18.6 6.17-45.45 11.47-80.93 9.84.7-6.64 1.46-13.52 2.24-20.45.24-2.17.49-4.34.74-6.53q.3-2.76.62-5.5.64-5.54 1.29-11c.82-6.95 1.62-13.74 2.4-20.15.11-1 .24-2 .36-3 .26-2.27.54-4.46.79-6.61.23-1.76.44-3.47.64-5.13.13-1 .25-2.07.37-3.07.19-1.56.39-3.07.57-4.52.11-.94.22-1.85.34-2.74s.19-1.57.28-2.34c0-.15 0-.29.05-.44.08-.53.14-1 .21-1.56.09-.81.19-1.58.28-2.35s.17-1.35.26-2a31.47 31.47 0 0 1 15.05-23.19 101.26 101.26 0 0 1 18-8.36s2.56 7.11 14.76 12.8c0 0 13.09-6.91 17.94-14.84 7.69 2.45 15.51 5.36 22.6 8.19 1.08.42 2.13.89 3.16 1.4.29.13.59.27.88.43l.88.46c.24.14.49.26.73.41s.51.28.76.44.5.28.75.44.71.44 1.06.68c.64.41 1.26.83 1.87 1.28s1 .74 1.5 1.13.92.73 1.35 1.11l.12.09.09.08a24 24 0 0 1 8.21 18.17c.08 8 .01 19.3-.27 32.89Z" class="cls-20"/><path d="M272.39 174.11v26.46c-4.83 7.94-17.93 14.85-17.93 14.85-12.2-5.7-14.76-12.81-14.76-12.81v-19.56Z" class="cls-18"/><path d="M272.39 174.11v14.9a138.85 138.85 0 0 1-32.69 8.89v-14.85Z" class="cls-9"/><path d="M289.4 218.66c-6.76 11.5-19.29 18.08-19.29 18.08 0-9.76-8.12-17.36-8.12-17.36l-7.53-4s13.1-6.91 17.93-14.84v-4.08a29.77 29.77 0 0 1 12.21 4.11 13.15 13.15 0 0 1 4.8 18.09Z" class="cls-13"/><path d="M259.66 213.86s10.95 7.6 12.45 15c0 0 9.52-5.85 12.7-14.69a11.28 11.28 0 0 0-8.6-15.14c-.45-.07-.93-.13-1.42-.17 0 0 1.25 3.71-15.13 15Z" class="cls-3"/><path d="m254.46 215.38-8.75 3.05c-3.3 3.31-6.5 16.38-6.5 16.38a44.16 44.16 0 0 1-11.52-15.84 15.7 15.7 0 0 1 7.81-20.32 25.12 25.12 0 0 1 4.2-1.57v5.49s2.56 7.12 14.76 12.81Z" class="cls-13"/><path d="M237.4 199.28s-1.72 8 11.46 15.05l-4.28 2.24s-4.18 6.68-5.47 11c0 0-20.14-16.93-1.71-28.29Z" class="cls-3"/><path d="M156.28 91.25a162.75 162.75 0 0 0-4.93 22 14.16 14.16 0 0 0-10-2.06 13.49 13.49 0 0 0-2.91.82c-3.19-27.95 7-43.88 9.36-47.16a79.77 79.77 0 0 0 8.48 26.4Z" class="cls-21"/><path d="m328.93 84.63-2.72 43.84a17.82 17.82 0 0 0-24.78-4.9c-3.75 2.53-7.56 6.64-11.1 13.08 0 0-2.44-23.85-.54-43.66 0 0-15.19-3.52-15.19-29 0 0-61.33 18.13-106.21-2.47a149.52 149.52 0 0 0-12.11 29.71 79.77 79.77 0 0 1-8.51-26.37c-2.77-20.68 2.74-48.59 44.4-64.88 0 0 12.47 19.52 62.37 15.73 0 0 41.85-2.51 63.82 29.43a62.8 62.8 0 0 1 10.57 39.49Z" class="cls-21"/><path d="M167.89 47.72s-.71-24.34 15.84-33.38c0 0-4.62 22.18 9.66 34.52a63.4 63.4 0 0 1 4.5-21.38s13.43 19.36 38.86 20.24a17.82 17.82 0 0 1-1.27-11.37s24.33 16.22 48.56 7.84c0 0-9.89 10.92-39.57 2.22 0 0 .94 4.52 2.73 6.31 0 0-19.79 5.8-45-11.26a67.39 67.39 0 0 0-3.92 14.85s-15-2.9-20-22.69a33.6 33.6 0 0 0-10.39 14.1ZM291.04 59.51s-2 15.72 14.35 25.34a42.22 42.22 0 0 1 1.07-11.15s7.32 9 6.43 25.81c0 0 7.15-22.75-8.42-33.75 0 0-2.59 5.2-2.59 9.32.04 0-7.75-4.12-10.84-15.57ZM150.12 83.37s-4.54 17.51-4.54 23.77a98 98 0 0 1 .79-19.22s-2.64 2.25-4.32 3.93c0 0 .54-11.06 5.12-15.64a74.16 74.16 0 0 0-2.17 8.81 9.64 9.64 0 0 1 5.12-1.65Z" class="cls-22"/><path d="M168.3 141.01s-8.76-32.87-27-29.79a15.56 15.56 0 0 0-12.26 12.1c-2.36 10.46-1.6 28.66 31.72 29.63Z" class="cls-18"/><path d="M168.39 61.57s-17.09 29.42-18.56 67.81a59.93 59.93 0 0 0 54.94 62.11c24.46 2.12 56.09-1.47 88.95-22.24 0 0 40.82-4.93 35.42-33.64-2.42-12.83-16.9-19.31-27.71-12-3.75 2.53-7.55 6.65-11.1 13.1 0 0-2.44-23.87-.54-43.66 0 0-15.18-3.53-15.18-29 0-.05-61.34 18.1-106.22-2.48Z" class="cls-18"/><path d="M282.38 96.57c-13.87-10.69-13.1-24.65-13.1-24.65-50.5 14.57-98.4-2.3-98.4-2.3-13.17 15.9-19.32 42.87-19.51 43.65a160.28 160.28 0 0 1 17-51.72c44.87 20.61 106.2 2.46 106.2 2.46 0 25.49 15.19 29 15.19 29-1.9 19.79.54 43.65.54 43.65-9.53-15.31-7.92-40.09-7.92-40.09ZM316.6 151.57a16.63 16.63 0 0 1-5.76 4.1c-3.77 1.72-9.1 2.91-16.55 3.15v-10.76a41.62 41.62 0 0 1 5.09-7.15 27.21 27.21 0 0 1 3.36-3.24c9.19-7.36 21.57 4.96 13.86 13.9Z" class="cls-9"/><path d="M311.6 154.83c-.23.27-.48.53-.76.8-3.77 1.72-9.1 2.91-16.55 3.15v-10.72a41.62 41.62 0 0 1 5.09-7.15c8.66-5.45 19.3 5.76 12.22 13.92Z" class="cls-23"/><ellipse cx="237.77" cy="129.65" class="cls-24" rx="10.98" ry="13.49"/><ellipse cx="235.91" cy="129.63" class="cls-25" rx="6.61" ry="8.58"/><path d="M236.73 124.48a4 4 0 1 1-4-4 4 4 0 0 1 4 4Z" class="cls-3"/><ellipse cx="172.93" cy="130.91" class="cls-24" rx="10.98" ry="13.49"/><ellipse cx="171.07" cy="130.89" class="cls-25" rx="6.61" ry="8.58"/><circle cx="167.89" cy="125.75" r="4" class="cls-3"/><path d="M217.79 167.05s8.27.54 12.07-5.83c0 0-.68 10.03-12.07 5.83Z" class="cls-25"/><path d="m274.88 126.76 35.52-9.65a13.23 13.23 0 0 1 11 1.71 11.08 11.08 0 0 1 4.84 9.66 12.51 12.51 0 0 1 2.58 5.62s7-18.38-8.33-22.31a20.27 20.27 0 0 0-9.82.05l-35.76 8.64Z" class="cls-26"/><path d="M277.63 124.48c0-21.91-19.31-23.64-19.31-23.64-9.35-1.17-23.29-.42-28-.12-1 .07-2 .14-3 .29-18.59 2.85-19.07 21.17-19.07 21.17-.81 29.5 27.63 29.5 27.63 29.5h12.84c30.74 0 28.91-27.2 28.91-27.2Zm-5.26 1a48.4 48.4 0 0 1-.59 5.13 19.65 19.65 0 0 1-18.26 16.35 127.81 127.81 0 0 1-19.88-.64 23.21 23.21 0 0 1-20.88-20.8l-.07-.91a18 18 0 0 1 13.84-19 75.52 75.52 0 0 1 29.64-.46 19.59 19.59 0 0 1 16.2 20.31ZM194.97 109.2c-8.24-9.34-22.27-8.74-33.54-7.33a26.23 26.23 0 0 0-12.63 4.57c-6.36 4.76-8.1 11.75-8.6 19.3 0 0-1.84 27.21 28.88 27.21h4s28.45 0 27.63-29.5a23.46 23.46 0 0 0-5.74-14.25Zm1.24 17.57a23.21 23.21 0 0 1-20.87 20.8c-5.87.61-4.16 1-11 .63a19.66 19.66 0 0 1-18.3-16.35 48.24 48.24 0 0 1-.58-5.12 19.74 19.74 0 0 1 9.77-18.1c5-2.86 11-3.54 16.74-3.26 5.4.25 11.08.73 15.92 3.34 4.48 2.4 7.28 7.39 8.14 12.3a1.35 1.35 0 0 0 0 .18 19.14 19.14 0 0 1 .22 4.66Z" class="cls-26"/><path d="M209.21 128.32a17.58 17.58 0 0 0-10.26-.18l-1.63-4.79a22.42 22.42 0 0 1 13.6.21Z" class="cls-26"/><g style="opacity:.2"><path d="M212.69 124.57c0 .3.05.6.07.91a23.22 23.22 0 0 0 20.88 20.8 126.67 126.67 0 0 0 19.88.64 19.67 19.67 0 0 0 18.27-16.35 46 46 0 0 0 .57-5.13 19.56 19.56 0 0 0-16.19-20.3 75.14 75.14 0 0 0-29.64.46 18 18 0 0 0-13.84 18.97ZM196.28 125.85c0 .3 0 .61-.07.92a23.22 23.22 0 0 1-20.87 20.8c-5.87.6-4.17 1-11 .64a19.69 19.69 0 0 1-18.3-16.35 46.24 46.24 0 0 1-.57-5.13 19.73 19.73 0 0 1 9.76-18.1c5-2.86 11-3.54 16.74-3.27 5.4.26 11.08.74 15.92 3.34 4.49 2.42 7.28 7.4 8.14 12.31v.17a19.22 19.22 0 0 1 .25 4.67Z" class="cls-3"/></g><g style="opacity:.3"><path d="m236.75 104.1-22.86 26.66a21 21 0 0 1-1-3.83l19.21-22.36c1.58-.2 3.12-.35 4.65-.47ZM173.27 105.43l-26.11 30.42a19.1 19.1 0 0 1-1.12-4c-.2-1.15-.35-2.35-.46-3.58l19.46-22.7a40.18 40.18 0 0 1 6.93-.21c.43.03.87.04 1.3.07ZM194.2 115.45l-28.16 32.84-1.72-.09a19.64 19.64 0 0 1-11.48-4.54l31.33-36.52a20.62 20.62 0 0 1 3.73 1.57 15.53 15.53 0 0 1 6.3 6.74ZM196.28 125.85l-.07.92c0 .22-.05.46-.08.69l-16.52 19.26a24.1 24.1 0 0 1-4.09.83l20.79-24.23a19.38 19.38 0 0 1-.03 2.53ZM253.79 104.78l-31.77 37a22.8 22.8 0 0 1-4.84-4.82l28.29-33a75.15 75.15 0 0 1 8.32.82ZM272.38 124.68l-19.1 22.27a128.23 128.23 0 0 1-19.41-.62l31.59-36.76a19.39 19.39 0 0 1 6.92 15.11Z" class="cls-3"/></g><ellipse cx="204.11" cy="133.31" class="cls-23" rx="7.83" ry="6.76"/><ellipse cx="203.34" cy="131.58" class="cls-9" rx="5.29" ry="3.8"/><path d="M403.08 443.08v3.16a4.05 4.05 0 0 1-4.06 4.07h-51.86V439H399a4 4 0 0 1 4.06 4.06Z" style="fill:#831e21" transform="translate(-130.96 -93.43)"/><path d="M400.25 439.46v3.17a4.07 4.07 0 0 1-4.08 4.06h-49V439H399a4.09 4.09 0 0 1 1.22.18 2.26 2.26 0 0 1 .03.28Z" style="fill:#931e21" transform="translate(-130.96 -93.43)"/><path d="M39.46 345.58H117v11.3H39.46a4.88 4.88 0 0 1-4.88-4.88v-1.54a4.88 4.88 0 0 1 4.88-4.88ZM217.89 356.89h-77.56v-11.3h77.56a4.88 4.88 0 0 1 4.88 4.88v1.54a4.88 4.88 0 0 1-4.88 4.88Z" class="cls-31"/><path d="M140.34 345.57v11.29s-3.76 4.07-11.66 4.07-11.64-4.05-11.64-4.05v-11.31Z" class="cls-31"/><path d="M140.33 345.58h73.31a2.55 2.55 0 0 1 2.55 2.55v2.58a2.55 2.55 0 0 1-2.55 2.55h-73.31v-7.68ZM117.01 353.28H39.65a2.55 2.55 0 0 1-2.55-2.55v-2.58a2.55 2.55 0 0 1 2.55-2.55h77.36v7.68Z" class="cls-26"/><path d="M140.34 345.57v7.45s-3.76 4.06-11.66 4.06-11.64-4.04-11.64-4.04v-7.47Z" class="cls-26"/><path d="M179.47 442.55h-6.65a1.36 1.36 0 0 1-1.36-1.36 1.37 1.37 0 0 1 1.36-1.37h6.65a1.37 1.37 0 0 1 1.37 1.37 1.36 1.36 0 0 1-1.37 1.36Z" style="fill:#ff8863" transform="translate(-130.96 -93.43)"/><path d="m39.46 345.57 2.14-4.47-2.14-4.48h12A81.26 81.26 0 0 0 81.39 331c1.81-.71 3.77-1.43 5.85-2.1a44.4 44.4 0 0 1 33.51 2.23 30.69 30.69 0 0 1 7.9 5.49v8.95ZM217.89 345.57l-2.44-4.47 2.44-4.48h-12a81.35 81.35 0 0 1-29.94-5.62c-1.81-.71-3.77-1.43-5.84-2.1a44.42 44.42 0 0 0-33.52 2.23 30.47 30.47 0 0 0-7.89 5.49v8.95Z" class="cls-33"/><path d="M217.89 345.58h50.17l-1.7-4.27 1.7-4.68h-50.17l-2.44 4.48 2.44 4.47z" class="cls-33"/><path d="M128.68 336.63s-18.44-40.67-52.88-22a62.15 62.15 0 0 1 17.64-7.06l9.81-2.29a27 27 0 0 1 27.37 9.29 45.41 45.41 0 0 1 8 15.58" class="cls-14"/><path d="m89.67 308.57-.12.05a62.17 62.17 0 0 0-13.75 6s-20.82 5.29-28.21-6.1Z" class="cls-16"/><path d="M128.68 336.64v8.1a30.48 30.48 0 0 0-7.9-5.5 44.37 44.37 0 0 0-33.52-2.23c-2.07.67-4 1.38-5.83 2.1a81.41 81.41 0 0 1-29.95 5.63H39.86l1.74-3.63-2.14-4.47h12a81.41 81.41 0 0 0 29.95-5.63c1.8-.72 3.76-1.43 5.83-2.1a44.37 44.37 0 0 1 33.52 2.23 30.48 30.48 0 0 1 7.92 5.5Z" class="cls-3"/><path d="m215.45 341.11 2 3.63h-11.58a81.27 81.27 0 0 1-29.93-5.63c-1.82-.72-3.78-1.43-5.85-2.1a44.35 44.35 0 0 0-33.51 2.23 30.14 30.14 0 0 0-7.9 5.5v-8.1a30.14 30.14 0 0 1 7.9-5.5 44.35 44.35 0 0 1 33.51-2.23c2.07.67 4 1.38 5.85 2.1a81.27 81.27 0 0 0 29.93 5.63h12Z" class="cls-3"/><path d="M277.55 429.62v13.92l-5.14-2.54-2.41 1.09-3.13 1.45v-11.28a15.49 15.49 0 0 0-1.23-6l-.22-.51c.86-.55 1.72-1 2.54-1.46a28.73 28.73 0 0 1 7-2.57 7.21 7.21 0 0 1 1.26 1.95 14.07 14.07 0 0 1 1.33 5.95Z" style="fill:#feac00" transform="translate(-130.96 -93.43)"/><path d="M270 431.56v10.53l-3.13 1.45v-11.28a15.49 15.49 0 0 0-1.23-6l-.22-.51c.86-.55 1.72-1 2.54-1.46a9.7 9.7 0 0 1 .75 1.32 14 14 0 0 1 1.29 5.95Z" style="fill:#fe8b00" transform="translate(-130.96 -93.43)"/><g style="clip-path:url(#clip-path)"><path d="m307.32 365.5-18.8 10-11.48 6.07c-.57.57-1.14 1.11-1.71 1.63-10.41 9.61-19.52 10.63-26.3 8.95-11.71-2.91-17.09-16.68-9.63-26.16 6.48-8.23 18.48-10.46 18.48-10.46l1.52-.83 14.32-7.8 16-8.72Z" class="cls-18"/><path d="M251.18 374.88c-2.18 4.33-6.33 6.64-9.27 5.16s-3.55-6.19-1.37-10.52 6.32-6.63 9.26-5.15 3.56 6.2 1.38 10.51Z" class="cls-19"/><path d="m288.52 375.47-11.48 6.1c-.57.57-1.14 1.11-1.71 1.63-6.63-4.36-15.31-13-15.93-28.5l14.32-7.8a35.26 35.26 0 0 0 14.8 28.57Z" class="cls-23"/><path d="M295.04 208.72a196 196 0 0 1 19.71 9.05 78.87 78.87 0 0 1 33.17 33.37l19.72 37.93a44.93 44.93 0 0 1 1.19 39.37c-.08.19-.17.38-.26.57a44.46 44.46 0 0 1-18.85 19.9l-62.38 34.53s-25.49-9.22-23.32-39l63.49-33.16-3.29-62.44s-.26-27.45-29.18-40.12Z" class="cls-20"/><path d="M368.81 328.44c-.09.2-.17.38-.27.57a44.55 44.55 0 0 1-18.84 19.9l-62.36 34.54a36.1 36.1 0 0 1-7.89-4.44l66.38-38.52a44.57 44.57 0 0 0 18.85-19.92l.26-.56a44.78 44.78 0 0 0 1.37-33.44l1.3 2.51a45 45 0 0 1 1.2 39.36Z" class="cls-11"/><path d="M458.47 404.67s12.14-.25 19.81 4.36c0 0-3.67-6.14-20-7.17Z" style="fill:#c24c0a" transform="translate(-130.96 -93.43)"/><path d="M278.59 336.78s-5.64 26.47 21.76 39.46l-13 7.2s-26.45-8.2-23.32-39Z" class="cls-3"/><path d="m300.35 376.24-13 7.21a34.34 34.34 0 0 1-7.83-4l12.93-8a46 46 0 0 0 7.9 4.79Z" class="cls-13"/></g></g></g></svg>