<svg xmlns="http://www.w3.org/2000/svg" viewBox="0 0 384.79 241.2"><defs><style>.cls-1{fill:#3c3c3b;}</style></defs><title>logo</title><g id="Objects"><path class="cls-1" d="M419,296.71c-12.29-25.38-40.66-39.41-68.31-34.56-15.48,2.72-27.62,11.63-39.82,21-13.39,10.24-28.84,20.73-46.61,18.05-.7-.11-1,.93-.3,1.09,30.78,6.79,50.7-25.78,76.71-35.19,29.82-10.79,62.12,3,76.78,30.55C418,298.63,419.52,297.73,419,296.71Z" transform="translate(-229.04 -112.72)"/><path class="cls-1" d="M410.07,302.6c-15.94-18.6-47.68-19-69.57-13.83-15,3.52-28.55,11.82-43.15,16.69s-29.45,7.44-44.56,9.69q2.9-35.31,7.17-70.49c2.87-23.53,7-46.9,9.75-70.44.05-.44-.69-.54-.78-.1-4.84,22.9-7.47,46.43-10.31,69.65q-4.38,35.76-7.24,71.69c-.06.69.75.83,1.16.46a.41.41,0,0,0,.33.16c13.61-.4,27.15-3.27,40.15-7.21,14-4.26,26.76-11.3,40.54-16.06,13.05-4.52,27.56-5.45,41.24-4,12.93,1.34,24.91,5.57,34.26,14.83C409.72,304.26,410.65,303.29,410.07,302.6Z" transform="translate(-229.04 -112.72)"/><path class="cls-1" d="M611.42,326.68l-1-7.24.69-.17a1.22,1.22,0,0,0-.65-2.36l-.38.09q-.84-5.85-1.7-11.71-3.23-21.81-6.93-43.56c-4.81-28.35-9.43-57.07-16.5-85a.76.76,0,0,0-.11-.42c0-.1-.05-.21-.08-.31a.62.62,0,0,0-1.2,0,21,21,0,0,0-3.13.87l-1.32.4c-.28-1.69-.58-3.38-.86-5.07a.74.74,0,0,0-.91-.51c-1.53.39-3.07.68-4.61,1-.44-2.59-.87-5.18-1.32-7.77a.71.71,0,0,0-.69-.53c-2.72.33-5.44.61-8.17.88-.55-2.21-1.11-4.41-1.7-6.61a.67.67,0,0,0-.82-.46l-5.06,1.1c-1.11-3.69-2.33-7.34-3.7-10.94-.46-1.22-2.45-.69-2,.55,7.61,20.25,10.56,42.08,14.65,63.23,4.28,22.15,7.94,44.55,13.18,66.49-17,4.1-32.84-4.86-47.2-13-12.86-7.3-25.57-13.3-40.66-13.19-24.56.18-54.53,10.89-62.61,36.2-1.25-24.67-2.92-49.26-3.28-74-.19-13.24-.08-26.47,0-39.7.1-11.28.06-22.66-2.25-33.72a.66.66,0,0,0,.25-.35c3.56-11,11.7-20.4,23-23.87,12.43-3.83,27-1.71,39.11,2.31s21.77,11.32,32.21,18.24c9.62,6.37,20.57,11.74,32.42,10.35,1.32-.15,1.37-2.22,0-2.1-15.16,1.23-27.38-7.73-39.23-15.91-11-7.56-22.6-13.37-35.81-15.76-11.54-2.09-24.65-2.56-35.28,3.12a34.73,34.73,0,0,0-17.07,20.91c-8.39-20.6-34.25-23.51-52.89-16.92-12.71,4.49-23.84,12.23-35.2,19.29a150.62,150.62,0,0,1-18.49,10.11,73.15,73.15,0,0,1-11.77,4.08c-3.6.89-7.35,1-10.89,2.05a.64.64,0,0,0-.38.32.88.88,0,0,0-.94.79c-.26,1.42-.5,2.85-.76,4.27a35.5,35.5,0,0,0-5.28.9.44.44,0,0,0-.86,0c-.27,1.12-.54,2.25-.79,3.38a.59.59,0,0,0-.42-.06c-2.18.41-4.83.65-6.93,1.54-.27-.44-1-.52-1.11.1-.18,1-.34,1.93-.52,2.9-1.1.27-2.13.85-3.24,1.13a17.05,17.05,0,0,1-5.18.49c-.63,0-.7.76-.26,1-5.92,24.25-9.38,49.24-13.32,73.87-3.9,24.42-7.74,48.91-10.67,73.47-.14,1.18,1.91,1.47,2.09.28,3.67-25,7-50,11-74.94,3.86-24.17,8.86-48.25,12-72.52,2.19.13,5.14,0,7.2-1-3.94,21.87-6.91,43.95-10,66-3.2,23.08-6.3,46.2-8.82,69.37a.69.69,0,0,0,.85.77s0,0,.09.05c31.3,8.76,55.74-21.9,83.42-30.19a81.12,81.12,0,0,1,42.14-1.44c13.53,3.29,29.38,11.29,35.5,24.52.36.78,1.7.22,1.4-.59-4.52-12.08-18.27-20-29.87-24a79.61,79.61,0,0,0-39.64-2.77c-15.06,2.63-27.79,9.73-40.59,17.74-15.47,9.69-32.67,19.65-51.6,15.52,2.93-23.45,5.76-46.9,9-70.31,3.15-22.64,6.89-45.21,10-67.87a15.42,15.42,0,0,0,3.4-.8c1.26-.35,2.51-.74,3.75-1.13-4.74,21-7.51,42.57-10.91,63.76-3.58,22.23-7.66,44.57-10.08,67-.09.82,1.32,1,1.46.19,4.09-22.71,6.86-45.72,10.53-68.51,3.5-21.76,8.11-43.53,10.75-65.42H284a30.31,30.31,0,0,0,5.15-1.09c-3.68,20.95-6.77,42-10.18,63-3.59,22.17-8.23,44.44-10.41,66.79l-.48.18a.8.8,0,0,0,.42,1.55c22.67-6.32,38.29-25.4,58.68-36.07,24.54-12.83,55.49-9.94,76.89,7.75a72,72,0,0,1,22.52,33.5h0c-6.23.61-15.68,5.5-18,12.23a1,1,0,0,0-1.05-.6h-.95a.79.79,0,0,0-.26-1C386.5,297.49,360.94,293,337.71,298c-.51.11-.28.86.22.78,23.56-3.83,46.58,1,67,13.07-11.74-.46-22.55-7.52-34.19-9.18-13.58-1.93-27.45-.31-40.89,1.93-14.35,2.38-28.61,5.38-42.89,8.15-14.67,2.84-29.46,5.38-44,8.9-1,.24-.55,1.64.41,1.5,28.63-4.14,56.83-11.06,85.34-15.92,14.16-2.41,29.05-4.33,43.35-1.89,12,2.05,23,9.54,35.42,9a1.25,1.25,0,0,0,.64-.22,9.34,9.34,0,0,0,.21,3.88c-.06.17-.13.32-.19.49a1.24,1.24,0,0,0-1.47-1q-43.6,8.24-87.34,15.86-21.42,3.7-42.87,7.25c-14.44,2.38-29,4.3-43.37,7.26-2.95-3.36-.88-16.31-.67-19.46.53-7.52,1.38-15,2.46-22.47,2-14,4.74-28,7.33-41.91l7.95-42.73q1.91-10.24,3.8-20.48c.64-3.42,2.09-23.15,8.31-21.54a1.12,1.12,0,0,0,.59-2.16c-4.45-1.15-6.9,3.07-8,6.81-2.43,8.37-3.3,17.52-4.88,26.09l-10,54.33c-3.12,16.91-6.42,33.82-8.38,50.92A238.74,238.74,0,0,0,230,341.46c0,2,0,5.54,1.44,7.21a.61.61,0,0,0,.65.65l.16,0a3.19,3.19,0,0,0,2.17.2.48.48,0,0,0,.36-.47c28.22-3,56.38-8.71,84.32-13.49Q363,328,406.73,319.8c-1.52,5.93-1.79,12.26,3.33,16.53,5.68,4.75,14.69,4.9,21.7,4.78,6.46-.12,13.44-1.7,17.85-6.8,3.39-3.92,4.73-10,1.74-14.44,52.18,12.69,106,19.71,159,27.82,1.55.24,2.22-2.13.66-2.37-27.21-4.16-54.41-8.33-81.55-12.88-26.73-4.49-53.33-9.73-80-14.45a1,1,0,0,0,.29-.44c12.94-1.88,24.5-8.43,37.08-11.69,14.67-3.81,30.16-2.85,44.89.11,25,5,50.83,19.41,76.85,13.9.22,1.54.45,3.08.67,4.63,1,7.33,1.35,15.08,3.19,22.25a.71.71,0,0,0,1.39-.19C613.81,340,612.31,333.19,611.42,326.68ZM379.24,251.05a73.48,73.48,0,0,0-39.82.36c-12.39,3.64-23,10.92-33.22,18.62-11.39,8.6-22.64,17.57-36.09,22.67,5-21.86,7.6-44.42,11.19-66.53,3.67-22.54,7.72-45.06,11-67.67a2.35,2.35,0,0,0,0-.26c5.26.71,11.18-1.09,16.06-2.73a99.91,99.91,0,0,0,16.43-7.44c11.33-6.27,21.77-14.06,33.33-19.92,11-5.55,23.18-9.39,35.54-7.19,10.77,1.92,20.66,8,25.1,18.26a.84.84,0,0,0,.6.51c3.7,25.3,1.51,51.28,1.93,76.76.38,23.94,1,48.13,3.23,72C415.42,270.47,398.91,256.41,379.24,251.05Zm49.9,51.26c8.63.32,15,6.23,18,13.8-8.22-11.93-29.93-14-37.48-1C410.83,307.26,422.39,302.07,429.14,302.31Zm.11,36.3c-5.39-.15-11.62-.19-16.31-3.17-5.79-3.67-5.23-9.7-4.57-15.63a.65.65,0,0,0-.28-.62,1,1,0,0,0,.11-.31.76.76,0,0,0,1.11.31.6.6,0,0,0,.54-.76.11.11,0,0,1,0-.05c3.57-6.08,9.53-10.1,16.77-10.19,8.5-.1,13.79,4.9,19.79,10a1,1,0,0,0,1,.15.55.55,0,0,0,.45.68l1.53.37a.82.82,0,0,0-.08.67C454.22,333.67,440.34,338.93,429.25,338.61Zm137.68-25.39c-13.4-4-26.61-8.46-40.46-10.68-12.79-2.06-25.94-2.4-38.61.61-13.14,3.13-25.18,9.62-38.34,12.79a21.09,21.09,0,0,0-7.31-10.89c21.19-16,47.46-22,73.72-18.85,14.45,1.76,27.56,6.91,41.11,11.89,13.17,4.83,28,8.91,41.81,4.34a.85.85,0,0,0-.45-1.64c-16.84,4.28-32.48-1.45-48.09-7.42-12.76-4.87-25.64-8.59-39.31-9.64-24.59-1.88-51,4-69.81,20.55a22.17,22.17,0,0,0-12.06-4.17c-.18-.62-.4-1.23-.6-1.85a.5.5,0,0,0,.77-.33c3.22-14.58,18.94-21.76,31.61-26.51,14.67-5.49,29.67-7.24,45-3.35,13.66,3.48,26.29,10,39.21,15.47,11.1,4.71,25.6,11.59,37.65,6.61.94-.39.58-1.91-.43-1.56-8.41,2.87-17,.34-25.08-2.48-7.61-2.67-15-6-22.33-9.26-12.48-5.54-25.26-11.11-39-12.62-15.13-1.67-29.79,2.68-43.43,8.9-10.62,4.84-21.92,12-24.25,24.29-.42-1.24-.87-2.47-1.37-3.68v-.12c9-30.09,44.72-43.38,73.83-37.82,26.76,5.11,49.07,33.62,78.27,24.79a1.16,1.16,0,0,0-.47-2.26c-3.29-22.36-8.21-44.54-12.46-66.73-3.28-17.07-5.9-34.58-10.83-51.33,2.11-.47,3.84-.87,4.9,1.41s1.24,5.43,1.8,7.86q1.89,8.28,3.66,16.6,3.43,16.2,6.39,32.49c4,22.26,7.19,44.62,10,67.05.12,1,1.72,1,1.6,0-2.33-21.11-5.59-42.16-9.31-63.07-3.35-18.81-6.89-37.74-11.51-56.31,2.34-.26,6.11-1.15,7.46.85.84,1.23.94,3.76,1,5.87l-1.2.25c-.38.08-.31.73.09.69a10.33,10.33,0,0,0,1.15-.17c0,.56.08,1.06.14,1.47.85,5.71,1.74,11.41,2.62,17.12q2.63,17.12,5.26,34.22,5.24,34.13,10.5,68.26a.85.85,0,0,0-.48,0c-17.45,3.66-33-3.32-48.59-10.46-12.33-5.66-24.68-10.21-38.34-11-24.62-1.48-50.45,7.33-67.7,25.22a.57.57,0,0,0,.8.8c19.78-17.82,46.33-27,72.93-23.42,14.75,2,27.64,8.82,41.12,14.67,12.46,5.4,26.71,9.88,40.23,5.87a.78.78,0,0,0,.59-.86.91.91,0,0,0,1.07-1c-6.22-40.34-11.86-80.82-18.64-121.08,1.67-.27,3.33-.35,4.21.92a7.5,7.5,0,0,1,.88,3.24l-1.73.52a.56.56,0,0,0,.3,1.08L578,179c.08,1.32.12,2.61.25,3.48q1.34,8.43,2.77,16.84,2.88,16.81,6.14,33.57,6.52,33.49,14.58,66.67c.25,1,1.83.59,1.58-.44-9.55-39.88-17.16-80-24-120.4l1.48-.31a24.53,24.53,0,0,0,2.94-.67c4.82,27.95,11,55.67,15.75,83.64q3.63,21.3,6.81,42.67c.67,4.47,1.29,8.95,1.93,13.43C594.33,320.39,580.37,317.23,566.93,313.22Z" transform="translate(-229.04 -112.72)"/><path class="cls-1" d="M605.05,306.75c-4.2,6.75-13,6.22-19.9,5a219.85,219.85,0,0,1-23.58-6c-15-4.5-29.82-9.81-45.27-12.6-23.4-4.23-50.85-2-68,16.35a.53.53,0,0,0,.75.74c21.61-21.3,54.35-19.32,81.45-12,15.67,4.24,30.9,10,46.72,13.73,8.79,2.07,24,6,29.27-4.4A.86.86,0,0,0,605.05,306.75Z" transform="translate(-229.04 -112.72)"/><path class="cls-1" d="M612.3,346.78a.65.65,0,0,0-.46-.33,2.49,2.49,0,0,0-.28-.15.72.72,0,0,0-.73.06l-2.49-.2c-.26-2.2-2.77-4.12-4.42-1.84a3.27,3.27,0,0,0-.63,1.44l-2.81-.22a.53.53,0,0,0,0-.39q-4.55-10.27-9.08-20.56A121.18,121.18,0,0,1,602.61,344c.22.47,1,.14.85-.36q-3-8.21-6.07-16.4,5,9.19,10.8,18a.47.47,0,0,0,.81-.48,107.88,107.88,0,0,1-7.48-18.45l9.33,17.13c.29.54,1,.07.81-.47-2.75-6.2-4.69-12.87-7.56-19-.36-.77-1.52-2.27-.41-1a48.44,48.44,0,0,1,3.18,4.25,82.57,82.57,0,0,1,4.82,8c.29.54,1.06.06.81-.48l-3.85-8.53c-.29-.64-1.9-3.39-1.75-3.87s1.47.46,2.24.84c.54.26,1-.55.47-.82L606,320.53a.48.48,0,0,0-.65.64l3,6.71a84.09,84.09,0,0,0-5.55-7.41.47.47,0,0,0-.78.46c1.57,4.65,3.29,9.25,5.12,13.81l-6.89-12.67a.47.47,0,0,0-.86.37,110.21,110.21,0,0,0,5.5,15.9q-5.37-8.7-10.05-17.79c-.23-.46-1-.14-.85.36l5.64,15.23a122.54,122.54,0,0,0-10.07-15.52.47.47,0,0,0-.81.48q4.36,9.87,8.72,19.75A126.58,126.58,0,0,1,587,321.23c-.22-.5-1-.13-.87.37q1.23,5,2.87,9.83-3.19-5.87-6.93-11.45c-.29-.42-1.06-.17-.87.37q2.63,7.74,5.27,15.49l-8.35-17.3c-.25-.5-1-.13-.86.36A86.19,86.19,0,0,0,581.52,333l-9.66-16.69a.47.47,0,0,0-.85.36c1.37,4.71,2.88,9.38,4.59,14,.63,1.68,1.29,3.35,2,5-.46-.65-.9-1.29-1.25-1.88-1.39-2.33-2.77-4.66-4.16-7l-8.31-14c-.3-.5-1-.06-.78.46l6.93,14.9,3.46,7.45c.14.31.28.62.41.94-4.89-8-10-15.49-14-24.07-.21-.46-1-.13-.82.35q2.55,7.25,5.11,14.5l2.4,6.83.45,1.28c-.47-.7-.88-1.32-1.07-1.67l-3.33-6.19-7.47-13.9c-.24-.45-1-.14-.83.35L560,328c.9,2.2,1.81,4.41,2.71,6.62-.39-.59-.76-1.17-1.06-1.71l-4-7-7.92-14.08c-.24-.43-1-.14-.81.34q2.64,6.45,5.29,12.9a173.8,173.8,0,0,0-10-16.37c-.27-.39-1-.15-.82.35.78,1.86,6.27,15.52,8.89,21.22-3.17-5.67-10.87-19.25-11.91-21.05a.46.46,0,0,0-.83.35,108.75,108.75,0,0,0,3.67,11l-7.2-12.8c-.29-.53-1-.07-.79.46l5.94,13.67,3,6.85c-.44-.64-.88-1.25-1.23-1.83q-2-3.35-4.07-6.71-4.08-6.71-8.15-13.41c-.26-.42-1-.14-.83.35q3.15,7.62,6.32,15.23.92,2.22,1.84,4.44l-3.08-6-7.59-14.9c-.24-.47-1-.14-.84.35.17.66.35,1.31.52,2-1.24-2.24-2.51-4.47-3.85-6.66-.26-.42-1-.15-.83.36,1.81,4.86,3.7,9.69,5.71,14.48.83,2,1.7,3.95,2.57,5.92l-1.35-2.47q-4.46-8.21-8.92-16.42c-.23-.42-1-.12-.8.34.33.8.65,1.61,1,2.42a5.7,5.7,0,0,0,.33.83c1.65,4.09,3.28,8.19,4.85,12.3.61,1.62,1.21,3.25,1.82,4.87-.74-1.57-1.48-3.14-2.25-4.7-2.46-5-5.08-9.93-7.81-14.79-.23-.41-1-.13-.79.33q3.06,7.53,6.11,15.07l2.71,6.67-3.63-7-7.82-15c-.22-.42-.95-.13-.78.33q1.82,5.06,3.64,10.1c-2.39-4.42-5.15-8.71-7.64-12.67-.24-.39-1-.14-.78.33l5.79,14.34q1.35,3.38,2.72,6.74c.09.23.22.62.36,1.09q-1.27-2.42-2.54-4.83l-7.54-14.29a.43.43,0,0,0-.78.32,135.34,135.34,0,0,0,4.89,14.3q1,2.49,2.17,4.93c-.33-.45-.64-.89-.89-1.3q-1.89-3.12-3.64-6.32c-2.47-4.5-4.7-9.12-6.77-13.81-.2-.44-.93-.13-.78.32,1.46,4.26,3,8.48,4.68,12.66.37.92.76,1.84,1.14,2.76-.22-.42-.45-.84-.67-1.27q-3.63-6.84-7.24-13.68a.42.42,0,0,0-.76.32,130.11,130.11,0,0,0,4.36,12.3c.35.82.7,1.64,1.06,2.46-.12-.22-.25-.44-.38-.65l-8.19-13.92c-.28-.48-1-.06-.73.42q2.79,6.24,5.59,12.47c-.62-.94-1.21-1.84-1.72-2.69-2.31-3.87-4.76-7.66-7.3-11.38a.42.42,0,0,0-.72.42c.77,1.66,6,12.45,9.05,18.77-3.61-6.32-10.3-17.08-11.25-18.68-.23-.38-.91-.13-.74.31q1.2,3.13,2.58,6.15-1.5-2.36-3-4.71c-.23-.36-.89-.14-.73.3.74,2.05,1.55,4.06,2.41,6-.43-.71-.86-1.42-1.3-2.12a4.52,4.52,0,0,0-.85-1.4l-1.17-1.93a.39.39,0,0,0-.68.39q3.11,5.54,6.22,11.07l1.77,3.16c-3.2-4.65-6.65-9.17-9.53-14-.21-.36-.84-.12-.69.29.84,2.47,1.78,4.88,2.8,7.25l-4.52-7.65a.39.39,0,0,0-.71.3,63,63,0,0,0,2.6,7.64c-1.65-2.49-3.32-5-5.05-7.4-.24-.35-.88-.15-.72.3.95,2.77,2,5.46,3.21,8.1-1.51-2.3-3-4.58-4.66-6.83-.24-.33-.87-.15-.72.31a65,65,0,0,0,3.69,8.89l-5.09-7.06c-.24-.34-.89-.15-.72.3a52.87,52.87,0,0,0,3.5,7.5l-6.1-7.37a.39.39,0,0,0-.64.37,34,34,0,0,0,2.31,5.13l-5-5.61c-.3-.33-.72.1-.57.45a44.25,44.25,0,0,0,3,5.94c.15.24.5.88.92,1.6-.53-.58-1-1.06-1.13-1.2l-5.94-5.67a.35.35,0,0,0-.54.42,32,32,0,0,0,2.51,4.49l-4.46-4.32a.33.33,0,0,0-.52.4c.69,1.5,2.56,6.59,4.19,7-1.32-.32-5.3-4.13-6.75-5.18-.27-.19-.64.19-.45.45.8,1.15,1.63,2.3,2.42,3.46h0l-.19-.18a23,23,0,0,0-4.88-3.11.32.32,0,0,0-.43.44c.19.32,1.16,1.88,1.69,2.8l-.64-.16c-1.06-.87-2.6-2.1-2.78-2.24s-.61,0-.49.29a5.57,5.57,0,0,0,1.91,2.62,2.15,2.15,0,0,0-1.2.05.74.74,0,0,0-.41.29,1,1,0,0,0-.74.78c-.06.62-.14,1.24-.21,1.86a30,30,0,0,0-8-8.18c-.42-.29-.9.27-.67.67l1.54,2.66c-2.35-3.2-4.79-6.34-7.36-9.39-.38-.45-1,.13-.75.58.91,2.11,1.9,4.18,2.95,6.21l-3.27-4.57a.47.47,0,0,0-.81.47l1.16,2.27q-2.1-2.79-4.42-5.43c-.37-.4-.92.12-.71.55s.41.86.61,1.3a35.75,35.75,0,0,0-3.42-4c-.37-.37-.88.1-.69.54,2.16,4.89,4.39,9.75,6.73,14.56.5,1,1,2,1.52,3l-.8-1.35-9.07-15.14c-.25-.41-1-.14-.81.34.73,2,1.56,3.93,2.44,5.83-1.4-2.22-3-4.28-5.13-5.19-.37-.16-.84.19-.6.59l8.73,14.61,2.66,4.45-3.35-4.79-10.17-14.5c-.31-.44-1-.05-.73.42l1,1.74a7.44,7.44,0,0,0,1.36,2.33c3.66,6.28,10.26,17.65,12.55,21.64-2.47-3.92-9.95-14.95-14.17-21.16a9.22,9.22,0,0,0-1.75-2.56l-1.1-1.62c-.29-.42-1,0-.69.4,1.29,2.17,11.1,19.45,14.84,26.21-4.11-6.56-15.57-22.91-17-24.92-.28-.38-.89-.05-.65.38q3.57,6.33,7.15,12.65c.56,1,4.59,7.08,6.36,10.45-1.61-2.61-5-6.65-5.91-7.84l-8.22-11.24a.38.38,0,0,0-.66.39,104.72,104.72,0,0,0,6.15,11.49c.59.94,1.2,2,1.83,3-.4-.48-.81-1-1.2-1.45a142.4,142.4,0,0,1-8.6-11.81.31.31,0,0,0-.53.31,97.72,97.72,0,0,0,6.43,13.2c-.4-.47-.79-.94-1.19-1.4l-7.39-8.7a4.76,4.76,0,0,0-.31-1.22.77.77,0,0,0-1.26-.33l-.14.14a.71.71,0,0,0-1.16-.32l-1.71,1.65a.86.86,0,0,0-.66-.17l-.73.1a.82.82,0,0,0-.81-.32L388.87,323a.67.67,0,0,0-.1-.21q-4.29-5.31-8.59-10.63l9.26,9.1c.48.47,1.16-.23.73-.73a93.73,93.73,0,0,1-7.55-9.9A96.29,96.29,0,0,1,394,321.08a.51.51,0,0,0,.8-.62l-3.62-5.52a77.52,77.52,0,0,1,7.06,6.15c.39.38,1.15-.14.79-.62l-5.5-7.38a31,31,0,0,1,4.08,3A17.62,17.62,0,0,0,401,319.5a.51.51,0,0,0,.72-.71,31.32,31.32,0,0,0-3.82-3.82c0-.16.12-.23.45-.17,2.19.38,4.2,2.85,5.43,4.48.38.49,1.21.06.86-.51l-1.88-3,2,.86a.49.49,0,0,0,.59-.77l.34-.31c.28.57,1.14.07.86-.5-.82-1.65-2.49-1-2.46.23l-2.35-1c-.42-.18-1,.21-.68.68l.42.68a15.94,15.94,0,0,0-4.75-2.51.48.48,0,0,0-.61.51A33.43,33.43,0,0,0,392,311c-.4-.21-1,.25-.69.69l3.77,5c-1.79-1.54-3.64-3-5.57-4.38-.42-.29-1,.29-.7.7l2.35,3.58A97.49,97.49,0,0,0,380.82,308c-.42-.31-.95.29-.7.7,1.26,2,2.6,4,4,5.93q-4.77-4.69-9.55-9.38c-.48-.47-1.13.22-.72.72l6,7.43q-4.73-4.54-9.9-8.64a.5.5,0,0,0-.71.71l8.71,10.8a159.17,159.17,0,0,0-12.71-11,.49.49,0,0,0-.69.69l9.32,10.38-11.46-10.36a.48.48,0,0,0-.68.67l5.18,6.25q-5.25-5.09-10.91-9.73a.48.48,0,0,0-.67.68L366.24,317l-12.08-12c-.45-.45-1.05.2-.67.67l9.39,11.79-12.22-12.89c-.36-.38-1.06.13-.74.58l7,9.69q-4.59-5.24-9.44-10.26c-.36-.37-1.07.13-.75.58L358,320.62l-14.67-16.06c-.36-.39-1.06.13-.75.58q5.61,8.06,11.2,16.13l-15.52-16.81c-.36-.39-1,.13-.74.57L347,319q-6-7-12.54-13.42c-.36-.36-1.05.12-.74.57,1.41,2,2.87,3.95,4.36,5.87q-3-3.07-5.89-6.16a.47.47,0,0,0-.73.57q2.14,3.56,4.52,6.94l-6.46-7.1c-.34-.38-.94.11-.69.54a97.91,97.91,0,0,0,6.52,9.75l-9.68-9.64c-.35-.35-1,.11-.7.54,2,2.9,4,5.75,6.05,8.57-3.35-3.68-6.75-7.3-10.24-10.85-.35-.35-1,.12-.71.55,2,2.83,4,5.58,6.1,8.28l-5.36-5.62c-.37-.39-1.07.12-.75.57q4.71,6.79,10,13.09-6.75-6.65-13.13-13.68c-.34-.38-1,.14-.71.55l8.9,11.62,2,2.65c-1-1.07-2-2.15-3-3.2-3.28-3.36-6.66-6.6-10.13-9.77-.42-.39-1,.19-.62.62l9.26,11.74c.28.37.57.73.86,1.1-5-5.28-10.61-10.25-15.63-15.37-.4-.41-1,.19-.61.61,1.22,1.5,9.41,11.41,14.45,17.43-5.35-5.62-14.32-14.49-15.65-15.85-.33-.33-1,.12-.67.52,1.52,2,3.09,4,4.69,6L304,310.86c-.39-.4-.91.18-.59.59l9.49,12.27L317,329c-5.54-5.93-11.47-11.48-16.7-17.74-.35-.41-.92.18-.59.59l1.77,2.23a10.66,10.66,0,0,0,1.8,2.27q3.12,4,6.2,8,2.15,2.82,4.27,5.66c.56.77,4.06,4.87,1.31,1.65s-6.48-6-9.44-9.12-5.8-6.56-8.48-10c-.28-.37-.93.12-.65.5s.72,1,1.07,1.44c0,.62,1.23,2,2.37,3.16,1.52,2,3.07,4,4.67,5.9s3.17,3.78,4.8,5.63l.18.22L305,325.19l-12.35-11.3a.36.36,0,0,0-.51.51l9.43,11,3.87,4.53c-2.24-2-4.71-3.83-6.75-5.7l-11.44-10.48a.39.39,0,0,0-.56.55q4.84,5.43,9.68,10.85l4.36,4.86c-.43-.34-.85-.68-1.22-1l-5.21-4.65-11.07-9.86c-.19-.16-.45.1-.27.27l6.86,6.29c-2.7-2.12-5.49-4.11-8.35-6-.38-.25-.85.34-.49.64a97.85,97.85,0,0,1,10.49,10c1.84,2.05,3.6,4.19,5.25,6.4.56.76,1.1,1.54,1.65,2.31l-.12-.12c-7.23-7.37-15.91-13.76-24.09-20-.35-.27-.77.31-.47.61l10.66,10.59,2.91,2.88c-1-.84-2-1.7-3.06-2.52q-5.24-4.16-10.71-8c-.38-.26-.7.28-.46.59,2.06,2.54,4.24,5,6.51,7.28-2-1.39-4-2.76-6-4.07-.32-.21-.72.29-.42.54q1.18,1,2.37,2.07l0,0c-2.39-1.64-4.61-4.14-7.25-5.8a.31.31,0,0,0-.42.42,43.47,43.47,0,0,0,3.42,4.54l-1.57-1.15a.25.25,0,0,0-.14-.06,48.13,48.13,0,0,0-5.8-3.33c-.27-.13-.61.14-.43.43a29.55,29.55,0,0,0,6.54,7.34c.24.19.58-.14.34-.34a30.57,30.57,0,0,1-5.66-6.31,47.27,47.27,0,0,1,4.73,2.78l0,0,8.78,9.26,4.29,4.53c-5.57-5.15-12.55-9.42-18.56-14-.28-.21-.61.25-.37.49l8.7,8.86,2.45,2.49c-5.12-4.53-11.18-8.48-16.42-12.66a.31.31,0,0,0-.45.44c1,1.27,8.24,9.44,12.78,14.11-5.65-4.66-16-12.84-17.33-13.94a.32.32,0,0,0-.45.45q3.39,4.17,7.12,8-6.09-4.93-12.34-9.66c-.32-.23-.66.26-.41.53,1.18,1.29,6.52,7.37,11.14,12.08-1.76-1.51-3.25-2.79-3.61-3.07-3.21-2.5-6.47-4.91-9.78-7.27-.31-.22-.6.24-.38.49,2.77,3.15,5.66,6.18,8.73,9l.22.2c-1-.65-1.7-1.15-2-1.37l-8.7-6.45a.25.25,0,0,0,.15-.41,43.09,43.09,0,0,1-7.58-9.58c-1-1.73-1.76-2.58.64-.5,1.84,1.58,3.61,3.23,5.42,4.85.21.19.58-.06.41-.32-.72-1.06-6.52-8.17-6.15-9s2.36,1.48,3.28,2.32c.68.63,1.69,2.15,1.92,2,.35.42.71.84,1.09,1.25.22.25.58-.12.37-.37-.49-.58-1-1.13-1.52-1.66,0,0,0-.05,0-.08-.08-.32-6.18-7.7-5.27-8.48s7.41,5.45,8.28,6.29c.2.19.57-.06.4-.31-1.37-2-2.72-4-4.08-6-1-1.54-3-3.48-3.56-5.24-.76-2.25,1.05.2,2.13.95l5.39,3.76c.27.2.54-.21.34-.44-2.44-2.76-5.89-6-7.24-9.42-.73-1.84.75.42,1.52,1.06l4.57,3.82c.3.25.72-.14.44-.43-1.1-1.13-6.11-8.34-6.57-8.24.59-.13,6,5.11,6.69,5.69.26.22.74-.07.51-.39-1.48-2.1-4.32-4.84-5.11-7.25a1.74,1.74,0,0,0-.35-.62,6.94,6.94,0,0,0,1.12.5c1.75.66,3.24,2.4,4.56,3.66.26.25.74-.09.51-.4-1.77-2.45-4.42-5.11-5.67-7.85a2.39,2.39,0,0,0-.56-.75c.19.13.53.35,1.11.67a23.73,23.73,0,0,1,4.5,3.88c.27.27.77-.08.55-.42-.54-.82-4.18-7.17-5.1-7.92.92.58,5.58,4.67,6.25,5.2.29.23.84-.07.57-.44-1.76-2.44-4.62-5.25-5.77-8-.38-.92-1.83-1.66.63-.2a22.12,22.12,0,0,1,4.6,3.93c.28.3.85-.11.59-.45-1.47-1.91-3.38-4.22-4.14-6.56-.57-1.76-.41-1,.8-.08,1.36,1,2.65,2.35,3.91,3.48.31.27.87-.1.6-.47l-3.18-4.44a44.91,44.91,0,0,1-3.05-4.05l1.91,1.5,3.72,2.91c.31.24.87-.07.6-.46s-2.91-4.26-4.18-6.15c1.24,1.32,3.8,3.51,4.33,4a.39.39,0,0,0,.55-.54,44.52,44.52,0,0,1-4-4.91c-.13-.19-2.43-4.13-2.46-4.13.4,0,5.25,5.12,6,5.78a.36.36,0,0,0,.57-.44c-.77-1.41-1.55-2.82-2.32-4.24-.4-.73-2.31-3.41-2.31-4.23,0,.92,4.78,4.21,5.84,5.08.33.28.89-.07.63-.49-1.38-2.29-2.63-4.88-4.24-7-2.65-3.53,2.21,1.8,3,2.51.33.3.89-.09.64-.49s-4.32-7-4.37-6.93c.4-.23,3.94,4.06,4.33,4.55s.86-.11.65-.5c-1.49-2.71-3.54-5.5-4.6-8.39.57,1.56,3.32,4.12,4.93,5.82.36.38.86-.1.67-.51-.83-1.85-1.66-3.84-2.66-5.7.68.76,1.4,1.5,2,2.25.38.43,1-.2.62-.62l-.9-1c.33.34.65.68,1,1a.18.18,0,0,0,.25-.25c-1.31-1.33-3.88-3.41-4.22-5.23-1-.92-1.07-1.3-.29-1.16l2.89,1.6a.32.32,0,0,0,.43-.44c-.58-1-3.64-7-4.18-6.87.37-.13,2.26,1.68,4,3.42a5.08,5.08,0,0,0,1.71,1.75c.62.64,1.1,1.14,1.29,1.31a.35.35,0,0,0,.49-.49c-1.49-1.74-5-5.23-5.46-7.77-.08-.43.34.4.71.77a21,21,0,0,1,3.1,4.22c.24.4.81.05.62-.37s-.41-.82-.65-1.23c.05-.27-.33-.81-.9-1.45A21.92,21.92,0,0,1,249,230c.23.65-.07,0-.3-.41.91.84,4.68,4.21,5,4.62a.35.35,0,0,0,.61-.36,56.43,56.43,0,0,0-4.09-6.29c-.13-.17-.43-.51-.77-.87a41.91,41.91,0,0,1,3.41,3.72.35.35,0,0,0,.6-.35c-1.13-2.31-2.34-5.26-4.06-7.38,1.38,1.63,3.53,4.5,4.58,6a.35.35,0,0,0,.61-.36c-.18-.32-2.39-4.4-3.53-6.31,1.14,1.32,3.35,3.57,3.8,4a.36.36,0,0,0,.57-.44c-.22-.38-1.48-2.84-2.4-4.37.67.43,1.38.81,1.37.8.35.22.64-.19.5-.5s-2.08-5-2.2-5c.06,0,3.09,3.67,3.4,4s.74-.09.56-.44c-.42-.81-1.59-4.08-2.57-5.65.83,1,2.1,2.51,2.52,2.95s.74-.09.58-.45a46.62,46.62,0,0,0-3.69-7.25,2,2,0,0,1-.15-.32c1.05,1,2.72,2.49,2.84,2.6a.36.36,0,0,0,.6-.35,32.18,32.18,0,0,0-1.78-5.08c1,1,1.95,1.87,2.93,2.81.27.26.75-.08.53-.42-1-1.48-3.08-3.92-3.31-5.67-.36-2.71,2.17.79,2.94,1.69.29.34.72-.09.57-.43-.94-2.13-2.33-4.41-2.94-6.64a1.42,1.42,0,0,1,0-.16,2.68,2.68,0,0,0,.34.39c1.05,1.06,2,2.24,3,3.35.29.32.78-.09.59-.45-.66-1.24-3.59-5.18-3.49-6.35,0,.4,3.65,3.17,4.36,3.79.3.26.83-.08.58-.45-1.44-2.15-2.85-4.33-4.27-6.49l.05.05a37.06,37.06,0,0,0,3.37,3.26c.33.32.76-.08.59-.46s-2.42-4.54-3.21-6.15a22.72,22.72,0,0,0,3.23,2.1.4.4,0,0,0,.55-.55c-.37-.58-2.8-3.69-3.14-4.4.46.75,4.36,3.13,4.89,3.53.33.24.8-.24.57-.57a41.75,41.75,0,0,1-3.39-4.7c0-.08,0-.13-.06-.2l1.87,1.2c.38.25.78-.3.48-.61-.55-.56-2.15-2-2.19-2,.68.36,2.29,1.65,3.05,2.12a.4.4,0,0,0,.55-.54c-.13-.27-1.29-2-1.73-2.85l.76.4c.48.25.9-.48.42-.73l-2.3-1.19a.41.41,0,0,0-.5.64c.47.57,2.27,2.83,1.89,2.82-.54,0-3-1.89-3.29-2.07a.4.4,0,0,0-.48.62c.24.24.82.75,1.34,1.21-.47-.35-1-.7-1.43-1s-.79.23-.55.56c.34.49,2.73,3.82,3.66,4.94-1.05-.88-4-3.06-4.42-3.37s-.77.23-.56.57c.68,1.05,2.59,3.27,2.9,4.48a34,34,0,0,1-3.28-2.44c-.31-.26-.86.07-.61.47.77,1.19,3.92,5.14,3.71,6.67.13-.9-3.61-3.72-4.41-4.49a.38.38,0,0,0-.59.46c1.44,2.32,2.9,4.63,4.42,6.9l-.21-.22a35.87,35.87,0,0,0-3.37-2.91.37.37,0,0,0-.58.45c.56,1.05,1.57,4,2.6,5.5-.87-1-2.18-2.84-2.74-3.44-.29-.33-.71.08-.56.43.47,1.06,3.72,6.73,3.43,7.37.28-.62-3.16-3-4-3.61-.24-.17-.65.12-.53.41a50.12,50.12,0,0,0,2.93,6c-.91-.82-2-1.66-2.17-1.85a.36.36,0,0,0-.57.44c.48.79,2.72,5.5,2.42,5.53-.7.08-3.27-2.95-3.83-3.47a.36.36,0,0,0-.57.44c1.42,2.32,2.6,4.76,4,7.1,2.16,3.71-2-1.72-2.7-2.44a.37.37,0,0,0-.58.44c.56,1.09,1.44,3.75,2.4,5.35-.78-1-1.81-2.47-2.28-3-.3-.33-.71.1-.57.44.47,1.11,1.87,3.08,1.77,4.19.61.9.51,1.08-.27.54a3.19,3.19,0,0,1-1.73-1.41.38.38,0,0,0-.59.46c1,1.69,2.22,4.37,3.47,5.47-1.35-1.19-3.12-3.45-4.57-4.95a.38.38,0,0,0-.59.46l2.09,3.61c-1.14-1.18-2.4-2.27-3.53-3.26-.29-.25-.84.1-.57.44,1.76,2.31,4.69,5.84,5.7,8.16-.87-2-3.59-3.63-5.3-4.86-.35-.25-.69.27-.44.56.6.68,3,4.27,4.77,6.42-1.67-1.27-3.92-2.84-4.07-2.92a.36.36,0,0,0-.43.56,44.74,44.74,0,0,1,2.88,4.12c-1.06-1-2.11-1.88-2.27-2a.36.36,0,0,0-.56.43c.39.75,1.32,2.87,2.39,4.77l-3.77-3.48a.33.33,0,0,0-.52.4c1.06,1.83,2.35,3.65,3.24,5.56,1.42,3-.63.87-2.29,0a.31.31,0,0,0-.42.43,29.92,29.92,0,0,0,2.59,4c-.85-1-1.71-1.95-2.56-2.92-.33-.37-.94.11-.68.53.48.76,4.2,7.43,4.82,8.67-.66-.95-4.31-4.83-4.9-5.45a.42.42,0,0,0-.66.51c1.47,2.67,3,6.3,4.89,8.3a31.57,31.57,0,0,0-4.81-4.53c-.34-.23-.77.23-.56.56,1.21,1.91,2.36,3.87,3.61,5.74-1-1-2.05-1.84-3-2.74-.33-.3-.89.08-.64.49.46.76,4.54,7.35,5,8.31-.53-.71-5-4.39-5.71-5a.41.41,0,0,0-.64.49c.51.91,3.46,7.32,4.48,8.29-1-.79-5.05-5.08-5.68-5.68a.41.41,0,0,0-.64.49,45.06,45.06,0,0,0,3.56,6.05c-.78-.65-1.58-1.29-2.29-1.94-.31-.28-.86.08-.6.46,1.47,2.18,4.06,4.86,5,7.15-.52-1.27-4.61-3.74-6-4.86-.31-.24-.88.08-.6.47q2.72,3.81,5.45,7.61l0,0c-1.23-1.23-2.62-2.33-3.91-3.48-.26-.23-.79,0-.64.37.26.68,1.78,4.08,3,6.33a42,42,0,0,0-4.49-2.8c-.3-.15-.74.18-.5.51.62.87,6.51,8.53,6.3,8.73.22-.21-5.31-4.42-6.23-5.14-.29-.24-.82.06-.57.44.43.64,3.39,5.12,4.76,7-1.53-1.3-5-3.55-5.27-3.72s-.65.17-.45.45c2,2.78,4.75,5.79,6.43,8.56-.86-1.42-4-3.14-6-4.13-.26-.14-.65.15-.44.44.64.91,4,6.78,5.27,7.76-1.24-.83-5.52-4.93-6.23-5.53-.26-.21-.69.06-.49.38a54.78,54.78,0,0,0,3.55,5.53c-1.16-1-2.37-1.89-3.52-2.84-.24-.2-.66.06-.46.36,2,3.21,4.38,6.06,6.53,9.14s-.4,0-1.6-.85l-5.39-3.75a.27.27,0,0,0-.37.37l4.09,6c1.1,1.6,3.8,4.3,4.27,6-.48-1.77-6.39-5.05-8.28-6.17-.24-.14-.47.14-.36.37a47,47,0,0,0,4.35,7.48,32.73,32.73,0,0,0-4.09-3,.26.26,0,0,0-.36.36l3.08,4.51c.29.42,2.61,4.43,3.07,4.5-1.34-.22-5.47-5-6.7-6.07a.25.25,0,0,0-.39.31,44,44,0,0,0,6.33,9.76c.37.43.85.86,1.29,1.3-.57-.57-1.24-1.06-1.81-1.59-2-1.88-4-3.77-5.81-5.84-.18-.21-.52.06-.38.3.32.55,2.47,4.23,4.12,7l-3.06-2.43a.29.29,0,0,0-.4.41c.66.71,1.33,1.41,2,2.11-1.59-1.17-3.18-2.29-3.5-2.47a.26.26,0,0,0-.35.35c.59,1.05,1.13,2.14,1.77,3.17s1.68,1.84.9,1.66-1.81-1-2.7-1.25a.21.21,0,0,0-.25.25,8.91,8.91,0,0,0,2.49,4.82c.1.1.25-.05.16-.16-4.8-5.53-.15-3.7,1.2-2.1.16.2.46-.06.35-.27-.58-1.06-1.24-2.1-1.74-3.19s-1.61-1.95-.19-1.69a5.32,5.32,0,0,1,2.29,1.32c.7.72,1.4,1.43,2.12,2.13l0,0-1.63-1.32c-.26-.21-.63.13-.38.38q3.81,3.75,7.88,7.19l-8.3-6c-.24-.18-.55.22-.32.42,1.07,1,9.74,8.75,13.5,12.11-3.91-3.1-13.17-9.89-14.36-10.76-.27-.2-.55.21-.34.44.83.91,3.62,4,6.58,7.06q-4.53-3.29-9.15-6.4c-.22-.15-.46.18-.28.36,2.48,2.48,5.16,5.32,8,7.83l-8.51-5.69c-.2-.13-.38.15-.24.32a69.85,69.85,0,0,0,9,8.78l-8.15-5.27c-.19-.12-.35.14-.23.29a37.54,37.54,0,0,0,6.59,6.45l-6.42-3.64c-.16-.09-.36.14-.21.27.73.63,7.26,5.93,7.14,6.16l-8.88-5a.21.21,0,0,0-.26.33q2.39,2.21,4.92,4.15a30.73,30.73,0,0,0-4.57-1.71c-.17,0-.33.19-.18.31.51.42,1,.81,1.57,1.19l-.06,0c-.12-.06-.32.05-.26.2a4.62,4.62,0,0,0,4.28,3.25c.23,0,.23-.34,0-.36q-4.58-3-2-1.68a.9.9,0,0,0,.77.35c.48.26,1,.51,1.46.75.2.1.38-.21.18-.31l-1.25-.61c-.15-.23-3.11-1.77-3.26-2.3.19.64,3.91,1.6,4.53,1.94.16.09.51.31.89.57.66.46,1.32.92,2,1.36-1.37.41-2.75.83-4.12,1.29a.76.76,0,0,0-.33,1.25l.11.08a.8.8,0,0,0,0,.31,3.78,3.78,0,0,1-.51-2.45c.05-.64-1-.8-1.13-.16-.59,4.21,2.71,6.17,6.58,6.19,6.93.05,14.48-2.29,21.3-3.45q24.23-4.12,48.42-8.31C340,336.75,371.5,331.43,403,325.91c-3.29,2.79.62,9.13,2.84,11.34,5.4,5.36,13.66,6,20.85,6.16,6.79.18,16,.75,22-3.23,5.16-3.45,6.29-9.91,6.87-15.69,29.63,8.94,60.79,14.36,91.3,19.2q22.45,3.58,45.08,6.11c4.11.45,8.23.89,12.36,1.29,2,.2,4.66,1,6.59.17S613.79,348.12,612.3,346.78ZM234.46,351.1c.71.27,1.42.49,2.12.68a8.63,8.63,0,0,0,1,.39A6,6,0,0,1,234.46,351.1Zm34.84-31.18a37.37,37.37,0,0,1,6.24,5.48.31.31,0,0,0,.44,0,1.43,1.43,0,0,0,.29-.45c4.41,4,8.88,8.63,12.76,11.78-4.91-4-10.1-7.69-15.23-11.44A42,42,0,0,1,269.3,319.92Zm-32.69,1.86c-.48-.81-1.81-2.53-2.41-3.57.91,1.38,3.5,3.19,4.43,4,.55.48,1.11.93,1.67,1.38l-.71-.53c-.28-.21-.6.24-.36.47q4.14,4.22,8.47,8.23c-.85-.61-1.67-1.22-2.45-1.83l-7.19-5.71Zm5.37,8.08c.43.33.76.58.9.7l.23.18c.88.79,1.76,1.56,2.66,2.32-.56-.39-1.07-.75-1.44-1.07C244.13,331.82,243.14,330.92,242,329.86Zm61.08,7.51a.87.87,0,0,0-.74,1l-.95.13a.93.93,0,0,0-.41-.05l-16.66,2.34a81.65,81.65,0,0,0-11.49,1.61.68.68,0,0,0-.42,1.1l-3.71.69a.76.76,0,0,0-.91-.95L260.82,345c-4,.91-7.95,1.7-12,2.31a.61.61,0,0,0-.53.46.73.73,0,0,0-.85-.45l-.32.07-2.41.38c-.77.1-1.55.16-2.32.19l3.87-1.07a.74.74,0,0,0-.4-1.43q-3.63.78-7.18,1.81c-.57-.41-1.14-.8-1.73-1.16-1.73-1.33-6.52-4.69-6.34-4.91s8.1,4.47,8.88,4.9c.16.09.35-.13.2-.26l-4.78-4.13c-.94-.81-4.45-2.84-.88-1.17,2,1,3.8,2.41,5.84,3.31l.48.21c.79.5,1.6,1,2.44,1.44a.17.17,0,0,0,.17-.29l-2.29-1.3-1-.63a34.22,34.22,0,0,1-5.28-4.32c-.93-.93-3.81-3.34-.43-1.34,3.81,2.25,7.47,4.84,11.19,7.25.21.13.4-.2.19-.33a70.28,70.28,0,0,1-8.31-6.36c-1.18-1.06-4.24-5-5.16-5.27,2.38.59,5.39,3.6,7.45,5,2.94,2,5.87,3.91,8.8,5.88.22.14.41-.2.2-.35-1.26-.9-16.26-12.21-15.68-13,.06-.1,6,4.33,10.92,8a18.09,18.09,0,0,0,4.39,3.3l1.95,1.48c.26.2.62-.16.36-.36-2.6-2.07-5.14-4.21-7.59-6.47-1.22-1.13-2.43-2.28-3.61-3.45-.21-.21-1.19-1.37-2.07-2.31l1.55,1.2L243,335l8.85,6.51c.25.18.57-.23.33-.44l-12.69-11.37a11.67,11.67,0,0,0-2.4-1.87c1.05.39,2.48,1.92,3.24,2.47l7.12,5.12A28.51,28.51,0,0,0,251,338a4.74,4.74,0,0,1,.54.31c.77.58,1.53,1.17,2.31,1.73.23.17.44-.11.36-.32.37.27.73.55,1.1.81s.58-.23.33-.43l-4-3.2c-.58-.5-1.19-1-1.81-1.45l-6.38-5.12c-1.32-1.18-2.62-2.37-3.89-3.6l-.37-.62c1.63,1.18,3.17,2.24,3.51,2.52l15,11.89c.29.23.7-.17.41-.42-1-.82-1.95-1.66-2.92-2.49a30.86,30.86,0,0,0-3-2.62c-1.38-1.23-2.76-2.46-4.11-3.72q-2.46-2.26-4.84-4.62c-.38-.37-4.06-3.34-1.83-1.54,6.92,5.6,14.36,10.65,21.51,15.95.32.23.61-.28.31-.51l-1.87-1.45a27.79,27.79,0,0,0-3.59-2.92q-2.1-1.77-4.13-3.64c-2.44-2.28-5.26-6.18-7.69-7.72a131.44,131.44,0,0,1,15.74,12.31c.39.36.77.69,1.11,1l3.38,3c.3.26.74-.16.45-.44-6.1-5.81-11.56-12.64-17.89-18.16.64.56,18.86,16.39,19.89,16.49l1.35,1.14c.32.25.77-.18.45-.46l-1.88-1.59a25.84,25.84,0,0,0-3.07-2.64q-1.81-1.64-3.56-3.35c-2.15-2.12-6.86-6.19-7.77-8.09.57,1.2,3.1,2.48,4.23,3.38l5.64,4.5,11.28,9c.29.24.72-.16.42-.43-3.15-2.89-6.21-5.86-9.14-9-2.34-2.49-5-6.55-7.43-8.3,6.94,4.87,13.7,11,20.46,16.38.29.23.69-.14.41-.41l-8.68-8.87c-1.22-1.25-2.44-2.49-3.65-3.74,5.48,4.94,12.2,9.1,18,13.53.31.24.65-.25.4-.51l-8.78-9.27-3.76-4c-.36-.37-4.29-3.63-2.1-1.89,6.05,4.84,12.44,9.31,18.65,14,.32.24.66-.26.41-.53-3-3.28-6.13-6.47-9.38-9.51-.54-.51-1.09-1-1.64-1.5,1.31.92,2.68,1.81,4,2.71a106.11,106.11,0,0,0,10.33,8.38c.31.23.69-.27.41-.53q-5.25-4.68-10.87-8.88c-.82-.77-1.62-1.55-2.42-2.35-1.53-1.54-6.28-5.67-6.47-6.72.17.9,4.53,3.28,5.36,3.9q2.61,2,5.15,4c3.45,2.77,6.78,5.67,10,8.66.35.32.85-.18.52-.51l-1.26-1.26a7.27,7.27,0,0,0-2-2l-7.38-7.35-4-4c2.55,2,5.29,3.87,7.65,5.86,4,3.37,7.85,6.84,11.68,10.37.31.29.87-.09.62-.48a98.25,98.25,0,0,0-8.34-11c-.51-.58-3-3.21-5.42-5.52,3.23,2.56,7.12,5.6,7.92,6.31,1.86,1.67,4.73,6.09,7.44,6.22l3.61,3.31a.41.41,0,0,0,.58-.58c-3.24-3.61-6.46-7.23-9.7-10.83-1.34-1.51-2.69-3-4-4.5.42.34.83.67,1.19,1l5.4,4.92,11.32,10.31Q307,336.88,303.06,337.37Zm8.49-1.16a.34.34,0,0,0-.09-.24l-9.41-11-3.78-4.43c2.09,1.81,4.35,3.51,6.19,5.2l8.13,7.44a6.59,6.59,0,0,0,1.52,1.4l1.22,1.12Zm4.59-.67a.35.35,0,0,0-.11-.25q-4.59-4.85-8.89-10,4.68,4.76,9.81,9c.33.28.95-.09.65-.5q-4.28-5.83-8.68-11.57c.58.62,1.14,1.25,1.73,1.87,3.42,3.57,7,7,10.59,10.37.4.37.91-.18.59-.59l-8.93-11.55-3-3.84c1.82,1.65,3.73,3.23,5.25,4.76l4.08,4.11q3.15,3.33,6.47,6.52s0,0,0,0Q321,334.8,316.14,335.54Zm13.79-2.27-3.58.62a.39.39,0,0,0,0-.53l-1.18-1.18c-.14-.76-2.48-2.7-3.78-3.82-.61-.6-1.21-1.21-1.81-1.82-1.11-1.17-2.22-2.35-3.3-3.56-.41-.45-2.49-3-4.56-5.54,1.45,1.49,2.91,3,4.36,4.45l10.56,10.76c.4.41.95-.19.61-.61l-9.66-11.85-3.66-4.5.21.2,5.58,5.69,10.75,11A.62.62,0,0,0,329.93,333.27Zm1.53-.9v0l-8.71-11.06L319.32,317c1.85,1.66,3.82,3.26,5.37,4.87,3.16,3.29,6.21,6.67,9.19,10.13Zm8-1.36-4.55.78a.3.3,0,0,0,0-.08L326,320.1l-3-4c1.53,1.59,3.06,3.17,4.62,4.73q5.16,5.17,10.55,10.08a.47.47,0,0,0,.66-.66A177.28,177.28,0,0,1,325,314.15l12.1,12.69c1.22,1.3,2.44,2.6,3.69,3.87Zm2.25-.5a.45.45,0,0,0-.12-.38l-4.29-4.5c-3.38-3.64-6.62-7.39-9.69-11.29-.55-.7-1.09-1.4-1.63-2.11,1.47,1.39,3,2.74,4.17,4q3.44,3.76,6.74,7.61c.61.71,1.21,1.44,1.82,2.15,1.18,1.47,2.39,2.91,3.6,4.36Zm1.58-.33-.46-.55c-1.27-2.93-5-6.07-7-8.6q-3.55-4.62-6.9-9.41c.86.8,1.76,1.56,2.52,2.31l8.28,8.26c1.28,1.28,2.55,2.78,3.94,4,1,1,2,2,3.07,3,.43.4,1.05-.22.64-.63l-2.79-2.78c-2.16-2.65-4.83-5-7-7.66-1.87-2.34-3.43-4.86-5.13-7.29l3.51,3.86,6.12,6.75q3.31,4,6.95,7.73C347.13,329.45,345.19,329.8,343.26,330.18Zm8.81-.35c.15-.46-.1-1.09-.67-1l-.2,0h0l-1,.14-2.58-2.84c-2.3-2.88-5.07-5.49-7.33-8.41-.85-1.11-5.9-7-7-9.46,1.06,2.12,5.81,6.17,6.93,7.34q5,5.19,9.91,10.38c.42.45,1.09-.22.67-.67a166.3,166.3,0,0,1-12.51-14.55,194.73,194.73,0,0,1,15.85,18.66Zm3.09-.57a.18.18,0,0,0,0-.09l-13.2-19.3,15.74,17c.36.39,1-.12.74-.57l-11-15.9q7.86,8.58,15.7,17.18a.43.43,0,0,0,.3.13Zm11.43-2.1-3,.56a.45.45,0,0,0,.27-.68L352,310.85q6.74,7.35,12.92,15.2c.33.42,1.06-.14.75-.57L354.8,310.37l15,15.81a.43.43,0,0,0,.28.15ZM379,324.64a.67.67,0,0,0-.39.23l-.91.13a.72.72,0,0,0-.81-.31l-4.23,1-1.42.2a.62.62,0,0,0-.42.25l-.5.11a.5.5,0,0,0,.13-.75l-11.2-14.07,13.08,13c.44.44,1.06-.21.67-.67l-13.56-16.46a174,174,0,0,1,15.82,15.62c.41.46,1.06-.21.67-.68l-9.25-11.15L380,323.17a.48.48,0,0,0,.68-.68q-5.67-6.33-11.35-12.67a159.24,159.24,0,0,1,14.58,14Zm6.16-1q-6.06-7.51-12.13-15a134.74,134.74,0,0,1,14.74,14.62Zm41.89-11.27c.75,1.35,1.79,2.79,2.48,3.94l4.08,6.82q2.59,4.32,5.18,8.64c-.44-.57-.89-1.12-1.24-1.56L434.74,326c-.56-.88-1.11-1.76-1.65-2.65-1.23-2.05-2.42-4.14-3.51-6.28C429,315.9,427.86,314,427.05,312.35ZM406.1,323.5a1.63,1.63,0,0,0,1.18-1l4.4,7c1.32,2.11,3.39,4.54,4.47,6.9-1.81-3.76-7-8.39-9.85-11.7a.27.27,0,0,0-.47.1.91.91,0,0,0-.24-.62A5.69,5.69,0,0,0,406.1,323.5Zm-.47,1.83a.55.55,0,0,0,.17-.28.19.19,0,0,0,0,.08c1.23,2.47,2.51,5.1,4,7.51l-3.47-4C406.17,327.51,405.93,326.42,405.63,325.33Zm2,8.72-.06,0a9.57,9.57,0,0,1-.68-.93c0-.5-.07-1-.11-1.5a32.5,32.5,0,0,0,2.16,3.41Zm6.43,4.67-4.66-3.39a.19.19,0,0,0,.11-.3,32.11,32.11,0,0,1-2.26-3.54,9.32,9.32,0,0,0-.58-.9l-.09-.73.28.2c2.44,1.81,4.53,5.27,6.5,7.57.22.26.66-.08.47-.36-.94-1.32-6.45-10.79-6.78-10.71.53-.12,4.14,4.85,4.64,5.45l5.81,6.81c.22.27.66-.08.48-.37-3-4.77-6.19-11.63-9.88-15.15,4.58,4.37,8.44,10,12.54,14.79.24.27.72-.09.51-.39a103,103,0,0,1-6.86-10.87c-.76-1.41-1.49-2.85-2.19-4.29-.1-.22-.31-.62-.53-1.05,3.43,6.37,9.32,12.35,14.18,17.55.32.35.79-.15.5-.51a105,105,0,0,1-8.37-11.92c-1.45-2.43-3.28-7.3-4.92-8.32,1.52.95,3,4.15,4.11,5.62l3.09,4.21q4.13,5.61,8.25,11.22A.35.35,0,0,0,429,339c-2.68-4.74-5.34-9.49-8-14.24l-1.9-3.37c4.11,6.17,8.6,12.16,12.66,18.34A69.67,69.67,0,0,1,414,338.72Zm35.59-4.83-.09.15-5.38,4.18c-.52.36-1.06.7-1.6,1a.69.69,0,0,0-.94-.66l-2.33.8q-1.4.42-2.79.72c0-.42-.21-.85-.73-.79-1,.13-2,.23-3,.31-2.28-4.46-4.6-8.9-7-13.3-1.17-2.15-2.37-4.29-3.58-6.43l2.85,4.2,10.05,14.79a.41.41,0,0,0,.7-.41q-3.85-7.33-7.93-14.57c-.95-1.68-1.92-3.36-2.89-5l4,5.65,10.16,14.51c.32.45,1,.05.75-.43l-1-1.71a8.05,8.05,0,0,0-1.55-2.58l-5.7-9.55c-1.38-2.31-2.76-4.61-4.13-6.92-.9-1.5-2.71-6.27-4.14-6.92,1.53.69,3.13,4.2,4,5.5l4.46,6.69,2.82,4.21c2,3.09,4,6.12,6.1,9.15a.46.46,0,0,0,.82-.17l.7,1.16a.44.44,0,0,0,.76-.44q-4.41-8.18-8.48-16.53-2-4.18-4-8.41a25.77,25.77,0,0,1-1.63-3.33,26,26,0,0,1,2.06,2.5,52.35,52.35,0,0,1,3.43,5.32q1.72,3.4,3.56,6.75c2.29,4.52,4.57,9,7.76,13,.32.39,1-.12.7-.54-3.67-5.77-7.12-11.69-10.27-17.77-1.3-2.51-2.8-5.36-4-7.59,1.25,2.34,4,5.29,5.77,7.9.35.51.66,1,1,1.56q3.57,7,7.15,14c.23.46,1,.14.84-.35a83.67,83.67,0,0,0-3.72-8c-1.24-2.58-2.65-5.13-4.05-7.67l4.72,6.6q2.55,3.93,5.46,7.64l0,0h0l.07.1a.39.39,0,0,0,.47.11C449.81,332.91,449.72,333.4,449.63,333.89Zm.41-2.32-5.33-7.45a101.94,101.94,0,0,1-6.34-11.33,167.64,167.64,0,0,1,12,16.87C450.25,330.3,450.15,330.93,450,331.57Zm.55-3.47c-1.89-3.2-3.87-6.39-5.53-9.69s.89.21,1.8,1.13a28.75,28.75,0,0,1,4.07,5.32.52.52,0,0,0,.1.11C450.89,326,450.75,327.05,450.59,328.1Zm1.79-.56-.08,0,.27-1.9a.86.86,0,0,0,.69-.1C453,326.19,452.66,326.86,452.38,327.54Zm118-.59c-.91-1.95-1.81-3.89-2.71-5.84.17.26.33.51.47.75l4.15,7,8.14,13.67c-1.25-.3-2.5-.6-3.76-.86a.44.44,0,0,0,.24-.63Q573.64,334,570.38,327Zm-5.65-.64-1.34-3.8c3.52,6.73,8.42,13.21,12.75,19l.09.09c-2.17-.45-4.35-.83-6.54-1.17Q567.2,333.36,564.73,326.31Zm-30.85-11.89-.57-1.35c.49.66.91,1.22,1.1,1.54l4.08,6.71q4.29,7.08,8.6,14.16c.31.51,1,.06.78-.46-.9-2.08-8-17.85-10.55-23.52,2.75,5.55,10.73,20.78,12.73,23.13.48.83,1,1.66,1.46,2.47a.46.46,0,0,0,.79-.46q-2.22-3.93-4.43-7.88c-.43-.84-.85-1.69-1.25-2.54-2.15-4.55-3.53-9.28-5.35-13.93-1.32-3.36.31.76,1,2l3.61,6.23,8.13,14c.25.42,1,.14.83-.35l-5.64-13.52c-1-2.39-2-4.77-3-7.16-.07-.16-.14-.36-.21-.58A166.72,166.72,0,0,1,558.21,335a5.58,5.58,0,0,0,.75,1.66l.81,1.82c.2.46,1,.12.81-.35l-5.72-13.94-1.21-3c3.55,6.72,7.8,13.25,11.52,19.78-4.11-.74-8.23-1.43-12.37-2,.4-.33.43-1.05-.2-1.14L543,336.45,537,322Q535.45,318.23,533.88,314.42Zm-4.82-3.22,1.48,2.9,4,7.84,7.31,14.35-2.59-.37a.38.38,0,0,0,.16-.46,186.45,186.45,0,0,0-10.12-23.12C529.21,312,529.14,311.58,529.06,311.2Zm6,16.12c-.77-1.57-1.5-3.15-2.18-4.76s-1.41-3.5-2.06-5.27C532.35,320.57,533.65,324,535,327.32ZM523.67,311.6c0-.14-.11-.27-.16-.4.33.49.6.9.74,1.17l3.82,7,6,11c.24.48.48.95.75,1.38l1.75,3.23c.28.52,1,.06.79-.46-2.5-5.15-4.9-10.35-7.16-15.61-.43-1-3.9-10.34-5.68-14.14.91,1.69,2.32,4.44,3.52,6.83a109.28,109.28,0,0,0,10.56,24.14v0l-6.3-.89a.36.36,0,0,0,0-.25c-.22-.63-.45-1.24-.67-1.86a7.54,7.54,0,0,0-1.06-2.95q-2-5.46-4-10.9Q525.12,315.27,523.67,311.6Zm-3.1.65c.34.55.67,1.09.93,1.6q1.74,3.33,3.39,6.72c2.3,4.69,4.46,9.44,6.53,14.25l-1.81-.26c-.27-.68-.55-1.35-.82-2a6.07,6.07,0,0,0-.35-.87l-4.83-11.9Zm-4.8,6.29-2.72-6.75c-.28-.69-.61-1.86-1-3.08,1.12,2,2.21,3.94,3.25,5.94a164.23,164.23,0,0,1,7,15.41c.2.51,1,.3.84-.23q-2.42-6.69-4.84-13.37l-2-5.64q6.12,11.78,12.25,23.55c-2.32-.46-4.63-.9-7-1.32a.26.26,0,0,0,0-.17Zm-15.06-1.65-1.28-2.84c1.2,1.87,2.44,3.7,3.5,5.5,1.36,2.31,2.73,4.62,4.09,6.94a11.05,11.05,0,0,0,1.85,3.15l1.09,1.85-3.33-.78a.44.44,0,0,0,.06-.47c-.23-.52-.47-1.05-.71-1.57.16-.26,0-.64-.51-1.15-.24-.53-.47-1.06-.71-1.58a19,19,0,0,0-1-2.24Q502.23,320.3,500.71,316.89ZM490.76,315c-.75-1.62-1.46-3.27-2.13-4.93h0c1.83,3.09,3.81,6.11,5.8,9.11a102.25,102.25,0,0,0,6.43,9.91c.29.41,1,0,.69-.4l-7.44-11.61c-.13-.23-.27-.46-.39-.7-.83-1.54-1.5-3.26-2.21-4.93l.77,1.22,10.09,17c.28.46.94,0,.72-.42L497.2,316.6l-2.28-4.85c1.46,2.13,3.05,4.23,4.24,6.27,2.38,4.1,4.61,8.28,6.73,12.53-2.32-.52-4.65-1-7-1.46l-6.23-10.22C492,317.59,491.38,316.29,490.76,315ZM485,312c.06.11.12.22.18.31,1.15,1.84,2.32,3.67,3.53,5.48,2.46,3.69,5.06,7.29,7.76,10.82-1-.19-2-.4-3.07-.58a.65.65,0,0,0-.42.07L490,323C488.19,319.4,486.85,315.59,485,312Zm-3.74-2.59c2.53,3.45,4.62,8.16,6.89,12,1.1,1.86,2.05,4.22,3.42,5.92.12.19.24.38.35.57l-1.75-.42a.34.34,0,0,0-.06-.21c-.51-.87-1-1.72-1.55-2.58a18.41,18.41,0,0,0-1.75-2.87L485.67,320C484.11,317,482.93,311.67,481.3,309.44Zm.88,9.53c-1.08-2.21-2.05-4.48-2.95-6.77a16.45,16.45,0,0,0-1-2.25c.24.22,1.61,2.59,1.86,3,1.8,2.63,3.53,5.31,5.23,8a63.76,63.76,0,0,0,3.85,6.34l-2.74-.65c-.09-.17-.19-.33-.28-.49a7.08,7.08,0,0,0-.72-1.23l-1.34-2.26C483.43,321.42,482.79,320.21,482.18,319Zm.07,5a57.62,57.62,0,0,1-3.1-5.46c-.11-.22-2-4.28-2.72-6.17.55.94,1.58,2.24,1.78,2.54,2.11,3.11,3.86,7.32,6.35,10.12.27.46.53.92.81,1.38l-1.76-.4-.41-.57C482.86,324.86,482.47,324.29,482.25,324ZM478,321.13a45.64,45.64,0,0,1-2.48-4.49c-.16-.33-.33-.89-.53-1.47a7.3,7.3,0,0,0,.46.75q1.81,2.54,3.64,5.06c1,1.37,2,3.44,3.21,4.68l-1.3-.29-.54-.66C479.68,323.42,478.29,321.65,478,321.13Zm-18.64-2.95c2,.81,4.2,3,6,4.32l-4-1c-.58-.8-1.18-1.6-1.7-2.43C459,318,457.88,317.61,459.32,318.18Zm-3.87-.19c.46-.33,2.88,1.72,4.4,3.08l-3.35-.88C455.91,319.21,455.29,318.1,455.45,318Zm-.32,3.66a1.88,1.88,0,0,0-.31-.51h0l.16.08a.23.23,0,0,0,.16,0l1.25.39.39.31Zm21.57,3.72a.85.85,0,0,0-.32,0l-10.58-2.76a.38.38,0,0,0,.07-.53c-1.29-1.53-3.43-3.86-4.07-5.9s.59.33,1.31,1c1.26,1.22,2.58,3,4.06,3.93l.48.33c.58.66,1.18,1.3,1.83,1.92a.34.34,0,0,0,.48-.48L468,321l-.09-.18c-.79-1.61-2.47-3.09-3.36-4.74-1.35-2.54-.22-.76.53,0,2.62,2.77,5.55,5.31,8.3,7.94a.35.35,0,0,0,.5-.5c-.18-.22-7-9.59-6.35-9.88.14-.06,5.95,7.23,7.49,8.88a33.75,33.75,0,0,0,2.47,2.77c.34.34.84-.17.53-.53l-2.88-3.24,0-.06a30.2,30.2,0,0,1-3.16-5c-.32-.64-1.31-2.39-1.19-2.32.55.28,1.24,1.5,1.64,2l4.39,5.31a45.08,45.08,0,0,0,3.31,4.3.5.5,0,0,0-.05.21ZM519,337.15q-4.71-.93-9.4-1.92l2.37.44.06,0,.83.14L519,337A1.11,1.11,0,0,0,519,337.15Zm.67-4h-.08a.72.72,0,0,0-.82.55c-2.59-.7-5.19-1.34-7.79-2a.34.34,0,0,0-.05-.23c-2.15-3.76-4.16-7.61-5.93-11.57q-1.63-3.66-3-7.42c-.14-.38-.37-.88-.62-1.44,1.34,2.54,3.22,5.26,4.1,6.93l4.44,8.39a10.41,10.41,0,0,0,.85,1.6l1.53,2.89c.25.49,1,.06.72-.42-2.26-4.8-4.4-9.65-6.36-14.58-.45-1.12-.88-2.25-1.31-3.37a176.64,176.64,0,0,0,11.85,20.13.44.44,0,0,0,.75-.44,132.1,132.1,0,0,1-6.36-13.58c-.82-2.08-1.59-4.19-2.3-6.31-.36-1.06-.7-2.13-1-3.2,0-.11,0-.2,0-.3,1,1.59,2,4.5,2.46,5.34l3.35,6.35q2.63,5,5.22,9.9c.06.11.11.21.17.3l1.14,2.18-.18,0A.68.68,0,0,0,519.68,333.16Zm26.43,8.78a.63.63,0,0,0,.18-.22q5.54.88,11.09,1.62a.6.6,0,0,0,.19.37C553.75,343.14,549.92,342.55,546.11,341.94ZM567.36,340h0l-.18,0c-.73-.09-.87,1-.27,1.28l-.54-.1-5.52-13.46q-1.2-3-2.42-5.92l.08.13q1.65,3.09,3.32,6.18l6.49,12.07-1-.15ZM587,344.27c-1.86-.56-3.73-1.06-5.61-1.53a.5.5,0,0,0,0-.4c-2.11-4.71-4.07-9.48-5.8-14.34-.77-2.18-1.51-4.37-2.2-6.57-.11-.35-.21-.71-.32-1.06,4.07,7.65,8.76,15.05,13.1,22.54a.46.46,0,0,0,.8-.47,83.91,83.91,0,0,1-7.79-19.62L589,343.25a.47.47,0,0,0,.86-.36l-6.53-19.23a143.92,143.92,0,0,1,10,18.78c.25.56,1.06.08.82-.48a114.9,114.9,0,0,1-5.63-15,127.7,127.7,0,0,0,10.94,18.55l-2.68-.22A53.84,53.84,0,0,0,587,344.27Zm13.73,4.88-2.38-.26,1.14,0c1.83.21,3.66.46,5.48.73Zm7.75.75-.47,0a.86.86,0,0,0,.38-.56,9,9,0,0,0,1.47.08.73.73,0,0,0,.48-.28A1.6,1.6,0,0,1,608.48,349.9Zm2-1.1a.52.52,0,0,0-.31-.64q-.64-.27-1.29-.51l1.91.07A5.18,5.18,0,0,1,610.49,348.8Z" transform="translate(-229.04 -112.72)"/><path class="cls-1" d="M279.86,265.88c1.81,2.7,3.88,5,5.92,7.47a5.61,5.61,0,0,0,.59.65c-.22-.18-.53-.41-.95-.72-1.86-1.37-3.79-2.64-5.68-4-.18-.12-.43.13-.31.31.25.35,4.5,6.5,4.53,6.47-.21.15-.8-.13-1.54-.59,1,.8,2,1.63,2.5,2,.16.11.38-.1.27-.26-.55-.79-4-6.57-4.36-6.51,1.25-.22,6.17,4.19,7.22,4.92.2.14.42-.16.26-.33-1.07-1-7.15-8.38-7.07-8.39a4.22,4.22,0,0,1,2.52,1.05c-1.17-.82-2.36-1.62-3.57-2.39C280,265.44,279.73,265.69,279.86,265.88Z" transform="translate(-229.04 -112.72)"/><path class="cls-1" d="M290.81,235.75v0C290.93,236.48,291,236.77,290.81,235.75Z" transform="translate(-229.04 -112.72)"/><path class="cls-1" d="M277.93,272.79a19.61,19.61,0,0,0,2.74,4c-1.22-.61-3.48-1.81-3.84-1.91-.15-.05-.33.14-.22.29s1.13,1.37,2,2.48a2.45,2.45,0,0,1-.27-.75c-.8-.71-.57-1,.71-.81a10.67,10.67,0,0,1,3,2.19.21.21,0,0,0,.29-.29,30.75,30.75,0,0,1-2.57-3.11c-1-.92-1.17-1.28-.41-1.06a2.37,2.37,0,0,1,1.08.38c-1-.74-1.92-1.45-2.25-1.67A.21.21,0,0,0,277.93,272.79Z" transform="translate(-229.04 -112.72)"/><path class="cls-1" d="M287.79,234.61h0S287.77,234.6,287.79,234.61Z" transform="translate(-229.04 -112.72)"/><path class="cls-1" d="M282.42,275.51a16.74,16.74,0,0,0-1.95-1.34C281.13,274.65,281.82,275.14,282.42,275.51Z" transform="translate(-229.04 -112.72)"/><path class="cls-1" d="M299.85,263.65q-2.4-2.56-5-4.84c-1-1-1.8-1.89-2-2.1-2.28-2.33-4.4-4.94-6.8-7.14-.83-.76-2.35-2.15.15,0,1.06.91,2.26,1.7,3.37,2.54l8.76,6.61c.22.17.49-.2.29-.38-2-1.89-4-3.81-5.88-5.77-.5-.51-1.77-2.21-3-3.67l.18.14c1.71,1.26,3.48,2.41,5.3,3.5a3.17,3.17,0,0,0,.39.23l1.41.82a.22.22,0,0,0,.22-.38,40,40,0,0,1-9.69-8.23c-2.36-2.88.51-.31,1.81.65l5.89,4.33c.25.19.56-.22.33-.43-2.63-2.52-5.52-4.92-8-7.61-1.51-1.66.33.16,1.21.67l4.75,2.77c.3.18.55-.21.35-.45-1.3-1.55-3.74-3.56-4.52-5.38a2,2,0,0,0-.18-.33l.29.08a15.63,15.63,0,0,1,3.31,1.75c.25.13.57-.14.4-.4a29.59,29.59,0,0,0-1.87-2.61c-.44-.55-3.69-3.5-1-1.94a.31.31,0,0,0,.46-.31c-.08-.4-.18-.94-.28-1.43.32.06.45-.47.1-.59l-.27-.11c-.16-.64-.31-.94-.33-.12l-1.08-.4c-.34-.13-.54.39-.24.56,2.83,1.67-.72,1-.92.91a.31.31,0,0,0-.21.52c.67.59,4.65,4.06,4.22,4.62-.16.2-3.56-1.8-4-2a.31.31,0,0,0-.37.48c.76.9,5.18,5,5.05,5.93.06-.44-6.27-3.68-6.79-4a.29.29,0,0,0-.35.45c2.84,2.73,5.63,5.59,8.59,8.18-2.46-2.15-5.86-4.63-8.8-6.76-.17-.12-.43.13-.3.31a44.23,44.23,0,0,0,6.81,7.45q-2.94-2.06-5.68-4.39a.22.22,0,0,0-.31.31c3.62,4.08,8,8,11.51,11.74-3.62-3.78-9.06-7.05-13.39-10.33-.24-.19-.5.2-.31.41,2.49,2.78,5,5.51,7.59,8.19a65.86,65.86,0,0,0-7.49-4.93c-.27-.15-.58.22-.34.44,4.81,4.34,9.36,8.92,14,13.4,1.94,1.88-1.72-1.53-2-1.75l-4.13-3.22-8.25-6.43c-.2-.16-.58,0-.39.3,1.88,2.59,4,5.52,6.3,8.15q-3.91-3.14-7.81-6.31a.27.27,0,0,0-.38.38c3.61,4,7.1,8.32,11,12,1.82,1.74-2.54-2.25-3.22-2.82l-6.59-5.5c-.19-.17-.56.05-.38.3a98.33,98.33,0,0,0,6.6,8.33c-.3-.27-.52-.47-.6-.53-1.93-1.56-3.91-3-5.92-4.49-.17-.12-.41.13-.3.3.47.68,2.26,3.34,4.07,5.65l-.88-.62c.33.24.66.49,1,.77,1.61,2.05,3.22,3.79,3.88,3.57l0,0,1.11,1.05c.21.18.51-.12.31-.3-.5-.45-1.28-1.1-2.16-1.87l-.18-.16c-2.51-2.19-5.74-5.22-5.83-7,0,.87,4.28,3.17,5.23,3.95,1.7,1.38,3.35,2.81,5,4.28.19.17.46-.1.28-.28-1.66-1.64-3.29-3.31-4.85-5-1.3-1.45-3.92-5.89-5.41-6.55,1.22.54,2.86,2.49,4,3.42l6.59,5.5a.23.23,0,0,0,.33-.33c-3.73-4.11-8.51-8.6-11.71-12.53,1.67,2.05,4.65,3.73,6.72,5.4l3.06,2.47a24.31,24.31,0,0,0,2.56,2.06l2.43,2c.25.2.62-.15.36-.36a92.36,92.36,0,0,1-7-6.56c-1.8-1.87-4.57-4.26-5.72-6.58-.85-1.74,1.72,1.13,2.3,1.58l4.13,3.21,8.25,6.44c.25.2.59-.12.36-.36q-3.51-3.65-7.13-7.19c-2.29-2.21-5.56-4.34-7.38-6.92.66.93,4.24,2.86,5.9,4.11.72.54,6.22,6.11,7.46,6.81l1.22,1.18A.28.28,0,0,0,299.85,263.65Z" transform="translate(-229.04 -112.72)"/><path class="cls-1" d="M277.29,278.74a.2.2,0,0,0-.23.31l1.56,1.66c.17.18.44-.09.27-.27-2-2.12,1.95.81,2.47,1.2.15.12.37-.11.26-.26-.32-.44-1-1.14-1.6-1.88.24.38.38.67.34.79A32.09,32.09,0,0,1,277.29,278.74Z" transform="translate(-229.04 -112.72)"/><path class="cls-1" d="M284.36,268.38c-.2-.16-.4-.3-.6-.43Z" transform="translate(-229.04 -112.72)"/><path class="cls-1" d="M278.62,277.62a11.84,11.84,0,0,0,1.4,1.88C279.69,279,279.17,278.3,278.62,277.62Z" transform="translate(-229.04 -112.72)"/><path class="cls-1" d="M551.08,182.69c-2.71-2.47-5.44-4.91-8.16-7.37a38.85,38.85,0,0,0,6.49,3.32c.16.07.29-.17.16-.28-.88-.75-5.21-4.81-9.34-8.46,2.85,2,5.75,3.82,8.71,5.62a.21.21,0,0,0,.25-.33c-5.15-5-10.47-9.89-16-14.52l1.4.91c3.72,2.51,7.55,4.84,11.46,7,.2.11.43-.17.25-.33-1.28-1.15-9.54-9-15.45-14.25,5.82,4.85,13.9,11.78,15.19,12.83.22.18.52-.1.31-.31q-3.4-3.57-6.85-7.1c-1.2-1.24-2.72-3.26-4.25-4.57,1.12.94,2.24,2.17,3.25,2.9a63.3,63.3,0,0,0,8.2,4.88c.25.12.54-.2.31-.41-2.58-2.37-5.21-4.71-7.76-7.12-1.6-1.51.79.64,1.51,1.1l5.11,3.21a.32.32,0,0,0,.4-.5c-1.48-1.61-4-3.56-5.06-5.25.62,1,3.63,2.54,5,3.43a.35.35,0,0,0,.48-.48c-.43-.67-2.1-2.63-2-3.23.05-.35,2.24.74,2.56.88s.68-.58.21-.77L543.51,152c-.3-.13-.59.29-.42.55l2,3c.38.34.23.26-.46-.24-1.49-.45-3.2-2.11-4.5-3-.34-.22-.68.27-.42.54.6.65,5.11,4.71,5,5.16.08-.63-6.56-4.06-7.33-4.54-.27-.17-.59.23-.34.45l4.79,4.36c.8.73,1.62,1.43,2.4,2.18.6.59,2.17,1.25.58.69-4.42-1.55-8.86-5.65-12.21-8.74a.22.22,0,0,0-.31.31q4.35,4.53,8.72,9a50.66,50.66,0,0,1,3.76,3.86,29.63,29.63,0,0,0-3.13-2.87l-14.07-11.52-1.06-.86-3-2.42c-.21-.18-.52.12-.31.31,6.67,6,13.25,12.13,20.06,18,3.42,2.93-.55,0-1.43-.48-1.44-.86-2.86-1.75-4.28-2.66-3.77-2.43-7.42-5-11-7.75-.19-.14-.46.19-.26.35,6.3,5,12.42,10.27,18.3,15.78.38.35,3,2.84,3,2.82-.16.17-4.58-2.91-5-3.22q-2.83-1.89-5.59-3.89a30.38,30.38,0,0,0-4.33-3.27L531,162.51c-.2-.17-.5.12-.29.29q6.65,5.67,13.32,11.3c.19.16,3.91,3.44,4,3.37-.41.3-2.24-.84-2.59-1a36.59,36.59,0,0,1-6.29-4.56L536,169.05a.22.22,0,0,0-.31.31,39,39,0,0,0,4.06,3.69l1.57,1.46,6.29,5.69c.18.16,1.58,1.26,1.92,1.61A35.88,35.88,0,0,0,546,180c-2.59-1.49-5.08-3.12-7.53-4.84-.26-.18-.53.21-.33.42l4.82,4.89c.55.55,4.95,4.3,4.81,4.88.19-.79-8.07-5.58-9.29-6.39-.26-.17-.53.21-.33.42,1.4,1.45,2.81,2.86,4.31,4.19.86.77,2.7,1.75,3.33,2.7-.76-.92-3.7-1.9-5.1-2.41-.21-.07-.3.26-.09.34a38.69,38.69,0,0,1,6.56,3.21c.22.13.5-.2.28-.36-.89-.71-8.1-6.48-7.88-6.84-.11.18,8.62,5.84,9.47,6.41.25.16.51-.2.31-.41-.79-.8-7.91-8.12-9.43-9.5,1.64,1.11,9.91,5.92,10.87,6.41C551,183.2,551.3,182.89,551.08,182.69Z" transform="translate(-229.04 -112.72)"/></g></svg>